<svg width="499" height="285" xmlns="http://www.w3.org/2000/svg" xmlns:xlink="http://www.w3.org/1999/xlink" overflow="hidden"><defs><clipPath id="clip0"><rect x="37" y="298" width="499" height="285"/></clipPath></defs><g clip-path="url(#clip0)" transform="translate(-37 -298)"><rect x="38" y="299" width="497" height="13" fill="#FFFFFF"/><rect x="0" y="0" width="23" height="275" fill="#FFFFFF" transform="matrix(-1 0 0 1 61 307)"/><rect x="0" y="0" width="497" height="16" fill="#FFFFFF" transform="matrix(-1 0 0 1 535 566)"/><rect x="0" y="0" width="24" height="275" fill="#FFFFFF" transform="matrix(-1 0 0 1 535 307)"/><path d="M61 314.319C61 307.515 66.5153 302 73.3186 302L499.681 302C506.485 302 512 307.515 512 314.319L512 561.681C512 568.485 506.485 574 499.681 574L73.3186 574C66.5153 574 61 568.485 61 561.681Z" stroke="#000000" stroke-width="6" stroke-miterlimit="8" fill="none" fill-rule="evenodd"/><path d="M38 567.333C38 566.597 38.5969 566 39.3333 566L533.667 566C534.403 566 535 566.597 535 567.333L535 572.667C535 573.403 534.403 574 533.667 574L39.3333 574C38.5969 574 38 573.403 38 572.667Z" fill="#A6A6A6" fill-rule="evenodd"/><path d="M81 574 81 582 39 574Z" fill="#595959" fill-rule="evenodd"/><path d="M0 8 0 0 43 8Z" fill="#595959" fill-rule="evenodd" transform="matrix(1 -1.22465e-16 -1.22465e-16 -1 492 582)"/><rect x="81" y="574" width="412" height="8" fill="#595959"/><path d="M253 566.833C253 566.373 253.373 566 253.833 566L319.167 566C319.627 566 320 566.373 320 566.833L320 570.167C320 570.627 319.627 571 319.167 571L253.833 571C253.373 571 253 570.627 253 570.167Z" fill="#595959" fill-rule="evenodd"/><rect x="64" y="304" width="445" height="8"/><rect x="64" y="550" width="447" height="16"/></g></svg>