<svg width="499" height="285" xmlns="http://www.w3.org/2000/svg" xmlns:xlink="http://www.w3.org/1999/xlink" overflow="hidden"><defs><clipPath id="clip0"><rect x="610" y="295" width="499" height="285"/></clipPath></defs><g clip-path="url(#clip0)" transform="translate(-610 -295)"><path d="M634 311.319C634 304.515 639.515 299 646.319 299L1072.68 299C1079.48 299 1085 304.515 1085 311.319L1085 558.681C1085 565.485 1079.48 571 1072.68 571L646.319 571C639.515 571 634 565.485 634 558.681Z" stroke="#000000" stroke-width="6" stroke-miterlimit="8" fill="none" fill-rule="evenodd"/><path d="M611 564.333C611 563.597 611.597 563 612.333 563L1106.67 563C1107.4 563 1108 563.597 1108 564.333L1108 569.667C1108 570.403 1107.4 571 1106.67 571L612.333 571C611.597 571 611 570.403 611 569.667Z" fill="#A6A6A6" fill-rule="evenodd"/><path d="M655 571 655 579 613 571Z" fill="#595959" fill-rule="evenodd"/><path d="M0 8 0 0 43 8Z" fill="#595959" fill-rule="evenodd" transform="matrix(1 -1.22465e-16 -1.22465e-16 -1 1064 579)"/><rect x="654" y="571" width="412" height="8" fill="#595959"/><path d="M826 563.833C826 563.373 826.373 563 826.833 563L892.167 563C892.627 563 893 563.373 893 563.833L893 567.167C893 567.627 892.627 568 892.167 568L826.833 568C826.373 568 826 567.627 826 567.167Z" fill="#595959" fill-rule="evenodd"/><rect x="637" y="301" width="445" height="8"/><rect x="637" y="547" width="447" height="16"/></g></svg>