<?xml version="1.0" encoding="utf-8"?>
<!-- Generator: Adobe Illustrator 24.0.0, SVG Export Plug-In . SVG Version: 6.00 Build 0)  -->
<svg version="1.1" xmlns="http://www.w3.org/2000/svg" xmlns:xlink="http://www.w3.org/1999/xlink" x="0px" y="0px"
	 viewBox="0 0 64 64" enable-background="new 0 0 64 64" xml:space="preserve">
<g id="Captions">
</g>
<g id="Icons">
	<g>
		<g>
			<path fill="#DC9600" d="M10,18h50v34c0,2.209-1.791,4-4,4H10c-1.105,0-2-0.895-2-2V20C8,18.895,8.895,18,10,18z"/>
		</g>
		<g>
			<path fill="#BE7800" d="M8,20v13.943c1.89,1.692,4.32,2.794,7,3.015V39c-0.552,0-1,0.448-1,1v10c0,0.552,0.448,1,1,1h2
				c0.552,0,1-0.448,1-1V40c0-0.552-0.448-1-1-1v-2.042C23.159,36.45,28,31.291,28,25c0-2.613-0.835-5.03-2.253-7H10
				C8.895,18,8,18.895,8,20z"/>
		</g>
		<g>
			<path fill="#BE7800" d="M56,49h-1c-0.552,0-1-0.448-1-1V18h6v34c0,0.171-0.03,0.334-0.05,0.5C59.701,50.53,58.038,49,56,49z"/>
		</g>
		<g>
			<path fill="#FAB400" d="M60,52L60,52c0-2.209-1.791-4-4-4h-1c-0.552,0-1-0.448-1-1V11c0-0.552,0.448-1,1-1h1c2.209,0,4,1.791,4,4
				V52L60,52z"/>
		</g>
		<g>
			<g>
				<rect x="15" y="34" transform="matrix(-1 -1.224647e-16 1.224647e-16 -1 32 72)" fill="#0A5078" width="2" height="4"/>
			</g>
			<g>
				<path fill="#C80A50" d="M17,38h-2c-0.552,0-1,0.448-1,1v10c0,0.552,0.448,1,1,1h2c0.552,0,1-0.448,1-1V39
					C18,38.448,17.552,38,17,38z"/>
			</g>
			<g>
				<circle fill="#0A5078" cx="16" cy="24" r="12"/>
			</g>
			<g>
				<circle fill="#00A0C8" cx="16" cy="24" r="10"/>
			</g>
		</g>
		<g>
			<g>
				<path fill="#C80A50" d="M15.219,31.024l-6.66-8.325c-0.318-0.398-0.287-0.971,0.074-1.332l3.074-3.074
					C11.895,18.105,12.149,18,12.414,18h7.172c0.265,0,0.52,0.105,0.707,0.293l3.074,3.074c0.36,0.36,0.392,0.934,0.074,1.332
					l-6.66,8.325C16.381,31.524,15.619,31.524,15.219,31.024z"/>
			</g>
			<g>
				<path fill="#F0F0F0" d="M8.343,22H16l-3.936-3.936c-0.133,0.05-0.255,0.127-0.357,0.229l-3.075,3.075
					C8.457,21.543,8.361,21.769,8.343,22z"/>
			</g>
			<g>
				<path fill="#A00028" d="M16,22h7.657c-0.017-0.231-0.114-0.457-0.289-0.632l-3.075-3.075c-0.102-0.102-0.224-0.18-0.357-0.229
					L16,22z"/>
			</g>
			<g>
				<path fill="#A00028" d="M8.343,22c-0.018,0.244,0.052,0.495,0.216,0.699l2.22,2.775l4.44,5.55c0.2,0.25,0.49,0.375,0.78,0.375
					V22H8.343z"/>
			</g>
		</g>
		<g>
			<path fill="#C80A50" d="M31,47h-1c-0.279,0-0.559-0.023-0.832-0.069c-0.546-0.091-1.06,0.277-1.151,0.821
				c-0.091,0.545,0.276,1.06,0.821,1.151C29.22,48.968,29.611,49,30,49h1c0.553,0,1-0.448,1-1S31.553,47,31,47z"/>
			<path fill="#C80A50" d="M37,47h-2c-0.553,0-1,0.448-1,1s0.447,1,1,1h2c0.553,0,1-0.448,1-1S37.553,47,37,47z"/>
			<path fill="#C80A50" d="M26.066,37.361c-0.422-0.359-1.054-0.304-1.409,0.116c-0.534,0.63-0.948,1.34-1.229,2.11
				c-0.189,0.519,0.077,1.093,0.597,1.283c0.113,0.041,0.229,0.061,0.343,0.061c0.408,0,0.791-0.252,0.939-0.657
				c0.2-0.548,0.495-1.054,0.876-1.504C26.54,38.349,26.487,37.718,26.066,37.361z"/>
			<path fill="#C80A50" d="M25.299,43.71c-0.188-0.52-0.761-0.787-1.281-0.599c-0.519,0.188-0.787,0.762-0.598,1.281
				c0.279,0.771,0.691,1.482,1.222,2.113c0.198,0.235,0.481,0.356,0.767,0.356c0.227,0,0.455-0.077,0.643-0.235
				c0.423-0.355,0.478-0.986,0.122-1.409C25.793,44.767,25.499,44.26,25.299,43.71z"/>
			<path fill="#C80A50" d="M37,35h-2c-0.553,0-1,0.448-1,1s0.447,1,1,1h2c0.553,0,1-0.448,1-1S37.553,35,37,35z"/>
			<path fill="#C80A50" d="M31,35h-1c-0.389,0-0.78,0.032-1.162,0.096c-0.545,0.091-0.912,0.606-0.821,1.151
				c0.082,0.489,0.505,0.835,0.985,0.835c0.055,0,0.11-0.004,0.166-0.014C29.441,37.023,29.721,37,30,37h1c0.553,0,1-0.448,1-1
				S31.553,35,31,35z"/>
			<path fill="#C80A50" d="M43.162,23.096C42.78,23.032,42.389,23,42,23h-1c-0.553,0-1,0.448-1,1s0.447,1,1,1h1
				c0.279,0,0.559,0.023,0.832,0.069c0.056,0.009,0.111,0.014,0.166,0.014c0.48,0,0.903-0.346,0.985-0.835
				C44.074,23.703,43.707,23.188,43.162,23.096z"/>
			<path fill="#C80A50" d="M47.982,31.112c-0.521-0.189-1.093,0.08-1.281,0.599c-0.2,0.549-0.494,1.057-0.874,1.508
				c-0.355,0.423-0.301,1.054,0.122,1.409c0.188,0.158,0.416,0.235,0.643,0.235c0.285,0,0.568-0.121,0.767-0.356
				c0.53-0.631,0.942-1.342,1.222-2.113C48.77,31.874,48.501,31.3,47.982,31.112z"/>
			<path fill="#C80A50" d="M46.693,28.274c0.148,0.405,0.531,0.657,0.939,0.657c0.114,0,0.229-0.02,0.343-0.061
				c0.52-0.19,0.786-0.764,0.597-1.283c-0.281-0.77-0.695-1.48-1.229-2.11c-0.355-0.42-0.987-0.476-1.409-0.116
				c-0.421,0.357-0.474,0.988-0.116,1.409C46.198,27.221,46.493,27.727,46.693,28.274z"/>
			<path fill="#C80A50" d="M42.832,34.931C42.559,34.977,42.279,35,42,35h-1c-0.553,0-1,0.448-1,1s0.447,1,1,1h1
				c0.389,0,0.78-0.032,1.162-0.096c0.545-0.091,0.912-0.606,0.821-1.151C43.892,35.208,43.378,34.842,42.832,34.931z"/>
			<path fill="#C80A50" d="M31,23h-1c-0.553,0-1,0.448-1,1s0.447,1,1,1h1c0.553,0,1-0.448,1-1S31.553,23,31,23z"/>
			<path fill="#C80A50" d="M37,23h-2c-0.553,0-1,0.448-1,1s0.447,1,1,1h2c0.553,0,1-0.448,1-1S37.553,23,37,23z"/>
		</g>
		<path fill="#0A5078" d="M45.414,48l3.293-3.293c0.391-0.391,0.391-1.023,0-1.414s-1.023-0.391-1.414,0L44,46.586l-3.293-3.293
			c-0.391-0.391-1.023-0.391-1.414,0s-0.391,1.023,0,1.414L42.586,48l-3.293,3.293c-0.391,0.391-0.391,1.023,0,1.414
			C39.488,52.902,39.744,53,40,53s0.512-0.098,0.707-0.293L44,49.414l3.293,3.293C47.488,52.902,47.744,53,48,53
			s0.512-0.098,0.707-0.293c0.391-0.391,0.391-1.023,0-1.414L45.414,48z"/>
	</g>
</g>
</svg>
