<?xml version="1.0" encoding="utf-8"?>
<!-- Generator: Adobe Illustrator 18.0.0, SVG Export Plug-In . SVG Version: 6.00 Build 0)  -->
<!DOCTYPE svg PUBLIC "-//W3C//DTD SVG 1.1//EN" "http://www.w3.org/Graphics/SVG/1.1/DTD/svg11.dtd">
<svg version="1.1" id="Layer_1" xmlns="http://www.w3.org/2000/svg" xmlns:xlink="http://www.w3.org/1999/xlink" x="0px" y="0px"
	 width="256px" height="256px" viewBox="0 0 256 256" enable-background="new 0 0 256 256" xml:space="preserve">
<g>
	<g>
		<path fill="#E0E0E0" d="M142.7,173c-1.4,0-2.7-0.4-4-1.3c-2.6-1.7-3.7-4.2-1.3-11.4C138.9,156,163.3,64,166,53.5l2.6-9.9
			l-22.4,10.9c-3.7,1.8-6.3,5.1-7.2,9.1l-2,9.1l0,0.1l0,0.2l-0.4,1.9c-0.5,2.1-2.3,3.6-4.5,3.6c-0.3,0-0.6,0-0.9-0.1
			c-1.2-0.2-2.2-0.9-2.9-2c-0.7-1-0.9-2.3-0.7-3.5l3.5-16c0.6-2.7,2.3-5,4.8-6.3L157.9,39c2.9-1.5,6.2-2.3,9.4-2.3
			c1.4,0,2.9,0.2,4.3,0.5l5.6,1.2l14.9,3.5l0.2,0.1c1.1,0.3,2.1,0.9,2.9,1.8c0.6,0.6,0.9,1.3,1.2,2.1l0.1,0.2l8.2,26.7
			c1.3,4.4,5,7.6,9.4,8.5l8.1,1.6c0.2,0,0.4,0.1,0.7,0.2c0.1,0,0.2,0.1,0.3,0.1c0.2,0.1,0.3,0.2,0.5,0.3c0.1,0,0.1,0.1,0.2,0.1
			c0.2,0.1,0.2,0.2,0.3,0.3c0.8,0.7,1.2,1.8,1.2,2.8c0,0,0,0.1,0,0.1l0,0.4l-0.1,0.4l-0.1,0.3c-0.5,1.5-2,2.6-3.6,2.6
			c-0.2,0-0.4,0-0.6-0.1l-0.6-0.1l0,0l-9.9-1.6c-4.8-0.8-8.7-4.1-10.3-8.6L191.1,54l-3.7,16.2l-7,32.1l9.6,3.2
			c7.9,2.6,12.8,10.9,10.9,18.9c0,0.2-0.1,0.4-0.2,0.6l-6.9,26c-0.7,2.7-3.2,4.6-5.9,4.6c-0.1,0-0.2,0-0.3,0c-0.2,0-0.3,0-0.4,0
			c0,0-0.3,0-0.4-0.1l-0.2,0l-0.2,0c-0.2,0-0.4-0.1-0.6-0.2c-3.1-1-4.8-4.3-3.9-7.5l4.6-16.2c1.1-3.9,0.3-8-2.2-11.2
			c-2.5-3.2-6.4-5.2-10.4-5.2c-0.3,0-0.6,0-0.9,0l-8.9,0.5l-16.5,53.7c-0.7,2-2.5,3.4-4.5,3.6C143,173,142.9,173,142.7,173z"/>
	</g>
	<g>
		<path fill="#4A555F" d="M186.7,36.4c-10,0-18.2-8.2-18.2-18.2S176.7,0,186.7,0c10,0,18.2,8.2,18.2,18.2S196.7,36.4,186.7,36.4z
			 M186.7,3.1c-8.3,0-15.1,6.8-15.1,15.1s6.8,15.1,15.1,15.1c8.3,0,15.1-6.8,15.1-15.1S195,3.1,186.7,3.1z"/>
	</g>
	<g>
		<path fill="#FFD552" d="M186.7,30.1c-6.6,0-12-5.4-12-11.9c0-6.6,5.4-11.9,12-11.9c6.6,0,11.9,5.4,11.9,11.9
			C198.6,24.8,193.3,30.1,186.7,30.1z"/>
	</g>
	<g>
		<path fill="#4A555F" d="M142.7,179.3c-2.6,0-5.2-0.8-7.4-2.3c-8.1-5.4-5.1-14.6-3.8-18.5c1.3-3.9,23-85.8,27.7-103.2L149,60.1
			c-1.9,0.9-3.3,2.7-3.8,4.8l-2.5,11.3c-1.2,5.6-6.9,9.5-12.7,8.3c-2.9-0.6-5.3-2.2-6.9-4.7c-1.6-2.4-2.1-5.4-1.5-8.2l3.5-16.1
			c1-4.5,3.9-8.3,7.9-10.5L155,33.5c5.5-2.9,11.9-3.8,18-2.5l5.6,1.2l15.1,3.5c0,0,0.1,0,0.2,0.1c2.3,0.6,4.4,1.9,6,3.7
			c1.1,1.3,1.9,2.7,2.5,4.3l0,0.1l8.3,26.9c0.7,2.1,2.4,3.7,4.6,4.2l8.1,1.6c0.6,0.1,1.2,0.3,1.7,0.5c0.3,0.1,0.5,0.2,0.8,0.4
			c0.4,0.2,0.8,0.4,1.1,0.6c0.2,0.2,0.5,0.3,0.7,0.5c0.2,0.2,0.4,0.3,0.6,0.5c2.1,2,3.3,4.8,3.2,7.7l0,0.3c0,0.2,0,0.4-0.1,0.5
			c0,0.1,0,0.3-0.1,0.4c0,0.1-0.1,0.3-0.1,0.5c0,0.1,0,0.2-0.1,0.3c0,0.1-0.1,0.3-0.1,0.4c0,0.2-0.1,0.3-0.1,0.4
			c-1.4,4.1-5.2,6.8-9.5,6.8c-0.5,0-1,0-1.6-0.1l-10.5-1.7c-7-1.1-12.9-6-15.2-12.7l-1.8-5.1l-4.7,21.5l4.2,1.4
			c11,3.6,17.6,15.1,15.1,26.2c-0.1,0.3-0.1,0.6-0.2,0.8l-6.9,26c-1.4,5.4-6.4,9.2-12,9.2c-0.2,0-0.5,0-0.7,0c-0.3,0-0.6,0-0.8-0.1
			c-0.2,0-0.4-0.1-0.6-0.1c-0.1,0-0.2,0-0.4-0.1l-0.1,0c-0.1,0-0.2,0-0.3-0.1c-0.3-0.1-0.7-0.2-1-0.3c-6.3-2.1-9.8-8.7-8-15.1
			l0.1-0.3l4.5-15.9c0.5-2,0.1-4-1.1-5.7c-1.4-1.8-3.6-2.9-5.9-2.7l-4.6,0.2l-15.3,49.6c-1.6,4.5-5.5,7.6-10.1,7.9
			C143.2,179.3,143,179.3,142.7,179.3z M163.8,49.5l-0.9,3.2c-1.1,4.2-27.1,102.2-28.6,106.6c-1.9,5.7-2.8,11.4,2.6,15
			c2,1.3,4.2,1.9,6.3,1.8c3.3-0.2,6.2-2.5,7.3-5.8l15.9-51.6l6.8-0.4c0.2,0,0.4,0,0.6,0c3.1,0,6,1.4,7.9,3.9
			c1.8,2.4,2.5,5.5,1.7,8.4l0,0.1l-4.5,16.1c-1.4,4.8,1.3,9.8,6,11.3c0.2,0.1,0.5,0.2,0.8,0.2l0.3,0.1c0.1,0,0.2,0,0.3,0
			c0.2,0,0.4,0.1,0.5,0.1c0.2,0,0.4,0.1,0.6,0.1c0.2,0,0.4,0,0.5,0c4.2,0,7.9-2.8,9-6.9l6.9-26c0.1-0.2,0.1-0.5,0.2-0.7
			c2.2-9.5-3.6-19.4-13-22.6l-6.9-2.3l7.6-34.8l5.3,15.4c2,5.7,6.9,9.8,12.8,10.7l10.5,1.7c0.4,0.1,0.8,0.1,1.1,0.1
			c3,0,5.6-1.9,6.6-4.7c0-0.1,0.1-0.2,0.1-0.3c0-0.1,0.1-0.2,0.1-0.3l0.1-0.3c0-0.1,0-0.2,0.1-0.3c0-0.1,0-0.2,0-0.3
			c0-0.1,0-0.3,0-0.4l0-0.3c0.1-2-0.7-3.9-2.2-5.3c-0.1-0.1-0.3-0.3-0.4-0.4c-0.2-0.1-0.3-0.2-0.5-0.3c-0.3-0.2-0.5-0.3-0.8-0.5
			c-0.2-0.1-0.4-0.2-0.5-0.2c-0.4-0.2-0.8-0.3-1.2-0.3l-8.1-1.6c-3.3-0.6-6-3-7-6.3l-8.3-26.8c-0.4-1.2-1-2.3-1.8-3.3
			c-1.2-1.4-2.8-2.3-4.5-2.7l-0.1,0c0,0,0.1,0,0.1,0l-15.1-3.5l-5.5-1.2c-5.3-1.2-11.1-0.4-15.9,2.2l-21.9,11.6
			c-3.3,1.7-5.6,4.8-6.4,8.4l-3.5,16.1c-0.4,2,0,4.1,1.1,5.9c1.1,1.7,2.9,2.9,4.9,3.3c4.2,0.8,8.2-1.9,9.1-5.9l2.5-11.3
			c0.7-3,2.7-5.6,5.4-6.9L163.8,49.5z"/>
	</g>
	<g>
		<polygon fill="#4A555F" points="112.9,244.6 61.5,244.6 61.5,241.5 109.8,241.5 109.8,203.7 163.5,203.7 163.5,166.9 217.4,166.9 
			217.4,170 166.6,170 166.6,206.8 112.9,206.8 		"/>
	</g>
	<g>
		<polygon fill="#F68F6F" points="217.4,213.2 217.4,175.6 172.2,175.6 172.2,212.2 119.2,212.2 119.2,244.8 217.4,244.8 
			217.4,213.2 		"/>
	</g>
	<g>
		<path fill="#4A555F" d="M167.7,121.8h-7.5c-4.5,0-8.7-2.1-11.5-5.7c-2.8-3.6-3.7-8.2-2.5-12.5l3.6-13.7l3,0.8l-3.6,13.7
			c-0.9,3.4-0.2,7,2,9.9c2.2,2.8,5.5,4.4,9,4.4h7.5V121.8z"/>
	</g>
	<g>
		
			<rect x="193.7" y="40.2" transform="matrix(0.9771 0.2129 -0.2129 0.9771 16.3807 -40.2869)" fill="#4A555F" width="3.1" height="31.5"/>
	</g>
	<g>
		<path fill="#E0E0E0" d="M35.9,249.8c-1.4,0-2.7-0.4-4-1.3c-2.6-1.7-3.7-4.2-1.3-11.4c1.5-4.4,25.8-96.3,28.6-106.8l2.6-9.9
			l-22.4,10.9c-3.7,1.8-6.3,5.1-7.2,9.1l-2,9.1l0,0.1l0,0.2l-0.4,1.9c-0.5,2.1-2.3,3.6-4.5,3.6c-0.3,0-0.6,0-0.9-0.1
			c-1.2-0.2-2.2-0.9-2.9-2c-0.7-1-0.9-2.3-0.7-3.5l3.5-16c0.6-2.7,2.3-5,4.8-6.3l21.9-11.6c2.9-1.5,6.2-2.3,9.4-2.3
			c1.4,0,2.9,0.2,4.3,0.5l5.6,1.2l14.9,3.5l0.2,0.1c1.1,0.3,2.1,0.9,2.9,1.8c0.6,0.6,0.9,1.3,1.2,2.1l0.1,0.2l8.2,26.7
			c1.3,4.4,5,7.6,9.4,8.5l8.1,1.6c0.2,0,0.4,0.1,0.7,0.2c0.1,0,0.2,0.1,0.3,0.1c0.2,0.1,0.3,0.2,0.5,0.3c0.1,0,0.1,0.1,0.2,0.1
			c0.2,0.1,0.2,0.2,0.3,0.3c0.8,0.7,1.2,1.8,1.2,2.8c0,0,0,0.1,0,0.1l0,0.4l-0.1,0.4l-0.1,0.3c-0.5,1.5-2,2.6-3.6,2.6
			c-0.2,0-0.4,0-0.6-0.1l-0.6-0.1l0,0l-9.9-1.6c-4.8-0.8-8.7-4.1-10.3-8.6l-8.9-25.8L80.6,147l-7,32.1l9.6,3.2
			c7.9,2.6,12.8,10.9,10.9,18.9c0,0.2-0.1,0.4-0.2,0.6l-6.9,26c-0.7,2.7-3.2,4.6-5.9,4.6c-0.1,0-0.2,0-0.3,0c-0.2,0-0.3,0-0.4,0
			c0,0-0.3,0-0.4-0.1l-0.2,0l-0.2,0c-0.2,0-0.4-0.1-0.6-0.2c-3.1-1-4.8-4.3-3.9-7.5l4.6-16.2c1.1-3.9,0.3-8-2.2-11.2
			c-2.5-3.2-6.4-5.2-10.4-5.2c-0.3,0-0.6,0-0.9,0l-8.9,0.5l-16.5,53.7c-0.7,2-2.5,3.4-4.5,3.6C36.2,249.8,36.1,249.8,35.9,249.8z"/>
	</g>
	<g>
		<path fill="#4A555F" d="M79.9,113.1c-10,0-18.2-8.2-18.2-18.2s8.2-18.2,18.2-18.2s18.2,8.2,18.2,18.2S89.9,113.1,79.9,113.1z
			 M79.9,79.8c-8.3,0-15.1,6.8-15.1,15.1S71.6,110,79.9,110S95,103.2,95,94.9S88.2,79.8,79.9,79.8z"/>
	</g>
	<g>
		<path fill="#FFD552" d="M79.9,106.9c-6.6,0-12-5.4-12-11.9c0-6.6,5.4-11.9,12-11.9c6.6,0,11.9,5.4,11.9,11.9
			C91.8,101.5,86.5,106.9,79.9,106.9z"/>
	</g>
	<g>
		<path fill="#4A555F" d="M35.9,256c-2.6,0-5.2-0.8-7.4-2.3c-8.1-5.4-5.1-14.6-3.8-18.5c1.3-3.9,23-85.7,27.7-103.2l-10.1,4.9
			c-1.9,0.9-3.3,2.7-3.8,4.8L36,153c-1.2,5.6-6.8,9.5-12.7,8.3c-2.9-0.6-5.3-2.2-6.9-4.7c-1.6-2.4-2.1-5.4-1.5-8.2l3.5-16.1
			c1-4.5,3.9-8.3,7.9-10.5l21.9-11.6c5.5-2.9,11.9-3.8,18-2.5l5.6,1.2l15.2,3.6c2.3,0.6,4.4,1.9,6,3.7c1.1,1.3,2,2.7,2.5,4.3l0,0.1
			l8.3,26.9c0.7,2.1,2.4,3.7,4.6,4.2l8.1,1.6c0.6,0.1,1.2,0.3,1.7,0.5c0.3,0.1,0.5,0.2,0.8,0.4c0.4,0.2,0.8,0.4,1.1,0.6
			c0.2,0.2,0.5,0.3,0.7,0.5c0.2,0.2,0.4,0.3,0.6,0.5c2.1,2,3.3,4.8,3.2,7.7l0,0.3c0,0.2,0,0.4-0.1,0.5c0,0.1,0,0.3-0.1,0.4
			c0,0.1-0.1,0.3-0.1,0.4c0,0.1-0.1,0.3-0.1,0.4c0,0.1-0.1,0.3-0.1,0.4c-0.1,0.2-0.1,0.3-0.1,0.4c-1.4,4-5.2,6.8-9.5,6.8
			c-0.5,0-1,0-1.6-0.1l-0.3,0l-10.2-1.6c-7-1.1-12.9-6-15.2-12.7l-1.8-5.1L80.9,175l4.2,1.4c11,3.6,17.6,15.1,15.1,26.2
			c-0.1,0.3-0.1,0.6-0.2,0.8l-6.9,26c-1.4,5.4-6.4,9.2-12,9.2c-0.2,0-0.5,0-0.7,0c-0.3,0-0.6,0-0.8-0.1c-0.2,0-0.4-0.1-0.6-0.1
			c-0.1,0-0.2,0-0.4-0.1l-0.1,0c-0.1,0-0.2,0-0.3-0.1c-0.3-0.1-0.7-0.2-1-0.3c-6.3-2.1-9.8-8.8-8-15.1l0.1-0.3l4.5-15.8l1.5,0.3
			l-1.5-0.4c0.5-2,0.1-4-1.1-5.7c-1.4-1.8-3.6-2.9-5.9-2.7l-4.6,0.2l-15.3,49.6c-1.6,4.5-5.5,7.6-10.1,7.9
			C36.5,256,36.2,256,35.9,256z M57.1,126.2l-0.9,3.2c-1.1,4.2-27.1,102.2-28.6,106.6c-1.9,5.7-2.8,11.4,2.6,15
			c2,1.3,4.2,1.9,6.3,1.8c3.3-0.2,6.2-2.5,7.3-5.8l15.9-51.6l6.8-0.4c0.2,0,0.4,0,0.6,0c3.1,0,6,1.4,7.9,3.9
			c1.8,2.4,2.5,5.5,1.7,8.4l0,0.1l-4.6,16.1c-1.4,4.8,1.3,9.8,6,11.3c0.2,0.1,0.5,0.2,0.8,0.2l0.3,0.1c0.1,0,0.2,0,0.3,0
			c0.2,0,0.4,0.1,0.5,0.1c0.2,0,0.4,0.1,0.6,0.1c0.2,0,0.4,0,0.5,0c4.2,0,7.9-2.8,9-6.9l6.9-26c0.1-0.2,0.1-0.5,0.2-0.7
			c2.2-9.5-3.6-19.4-13-22.6l-6.9-2.3l6.4-29.6l1.2-5.2l5.3,15.4c2,5.7,6.9,9.8,12.8,10.7l10.5,1.7c0.4,0.1,0.8,0.1,1.1,0.1
			c3,0,5.6-1.9,6.6-4.7c0-0.1,0.1-0.2,0.1-0.2c0-0.2,0.1-0.2,0.1-0.3l0.1-0.3c0-0.1,0-0.2,0.1-0.3c0-0.1,0-0.2,0-0.3
			c0-0.1,0-0.2,0-0.3l0-0.3c0.1-1.9-0.7-3.9-2.2-5.3c-0.1-0.1-0.3-0.3-0.4-0.4c-0.2-0.1-0.3-0.2-0.5-0.3c-0.3-0.2-0.5-0.3-0.8-0.5
			c-0.2-0.1-0.4-0.2-0.5-0.2c-0.4-0.2-0.8-0.3-1.2-0.3l-8.1-1.6c-3.3-0.6-6-3-7-6.3l-8.3-26.8c-0.4-1.2-1-2.3-1.8-3.3
			c-1.2-1.4-2.8-2.3-4.5-2.7l-0.1,0c0,0,0.1,0,0.1,0L71,112l-5.5-1.2c-5.3-1.2-11.1-0.4-15.9,2.2l-21.9,11.6
			c-3.3,1.7-5.6,4.8-6.4,8.4l-3.5,16.1c-0.4,2,0,4.1,1.1,5.9c1.1,1.7,2.9,2.9,4.9,3.3c4.2,0.8,8.2-1.9,9.1-5.9l2.5-11.3
			c0.7-3,2.7-5.6,5.4-6.9L57.1,126.2z"/>
	</g>
	<g>
		<path fill="#4A555F" d="M60.9,198.6h-7.5c-4.5,0-8.7-2.1-11.5-5.7c-2.8-3.6-3.7-8.2-2.5-12.5l3.6-13.7l3,0.8l-3.6,13.7
			c-0.9,3.4-0.2,7,2,9.9c2.2,2.8,5.5,4.4,9,4.4h7.5V198.6z"/>
	</g>
	<g>
		
			<rect x="87" y="116.9" transform="matrix(0.9771 0.2129 -0.2129 0.9771 30.2665 -15.7968)" fill="#4A555F" width="3.1" height="31.5"/>
	</g>
	<g>
		<g>
			<path fill="#4A555F" d="M231.5,85.9l-3-0.6l5.9-28.3l-29.1-6l12-7.9l-7.8-11.9l32,6.6L231.5,85.9z M213.2,49.4l21.8,4.5l2.9-13.8
				l-21.7-4.5l5.4,8.3L213.2,49.4z"/>
		</g>
		<g>
			<path fill="#FFD552" d="M222.4,47.7l9.7,2l1.4-6.7l-9.7-2l2.7,4L222.4,47.7z"/>
		</g>
	</g>
</g>
</svg>
