<?xml version="1.0" encoding="utf-8"?>
<!-- Generator: Adobe Illustrator 24.3.0, SVG Export Plug-In . SVG Version: 6.00 Build 0)  -->
<svg version="1.1" id="Layer_1" xmlns="http://www.w3.org/2000/svg" xmlns:xlink="http://www.w3.org/1999/xlink" x="0px" y="0px"
	 viewBox="0 0 80 80" enable-background="new 0 0 80 80" xml:space="preserve">
<g>
	<polygon fill="#2BA0BF" points="31,48.392 31,64 40,59 40,48.392 	"/>
	<polygon fill="#59C5EF" points="40,48.392 40,59 49,64 49,48.392 	"/>
	<path fill="#FDDC85" d="M22.312,36.46c-1.082-1.083-1.082-2.838,0-3.92l2.983-2.983c0.52-0.52,0.812-1.225,0.812-1.96v-4.218
		c0-1.531,1.241-2.772,2.772-2.772h4.219c0.734,0,1.439-0.292,1.96-0.812l2.983-2.983c1.083-1.083,2.838-1.083,3.92,0l2.983,2.983
		c0.52,0.52,1.225,0.812,1.96,0.812h4.219c1.53,0,2.771,1.241,2.771,2.772v4.218c0,0.735,0.292,1.44,0.811,1.96l2.983,2.983
		c1.082,1.082,1.082,2.837,0,3.92l-2.983,2.983c-0.519,0.52-0.811,1.225-0.811,1.959v4.219c0,1.531-1.241,2.771-2.771,2.771h-4.219
		c-0.735,0-1.441,0.293-1.96,0.812l-2.983,2.982c-1.082,1.083-2.837,1.083-3.92,0l-2.983-2.982c-0.521-0.52-1.225-0.812-1.96-0.812
		h-4.219c-1.531,0-2.772-1.24-2.772-2.771v-4.219c0-0.734-0.292-1.439-0.812-1.959L22.312,36.46z"/>
	<path fill="#FFBD66" d="M40,46c-6.341,0-11.5-5.158-11.5-11.5S33.659,23,40,23c6.342,0,11.5,5.158,11.5,11.5S46.342,46,40,46z
		 M40,25c-5.238,0-9.5,4.262-9.5,9.5c0,5.238,4.262,9.5,9.5,9.5s9.5-4.262,9.5-9.5C49.5,29.262,45.238,25,40,25z"/>
	<polygon fill="#E49A61" points="43,29.25 43,27.75 37,27.75 37,29.25 39,29.25 39,39.75 37,39.75 37,41.25 43,41.25 43,39.75 
		41,39.75 41,29.25 	"/>
</g>
</svg>
