<?xml version="1.0" encoding="iso-8859-1"?>
<!-- Generator: Adobe Illustrator 19.0.1, SVG Export Plug-In . SVG Version: 6.00 Build 0)  -->
<svg version="1.1" xmlns="http://www.w3.org/2000/svg" xmlns:xlink="http://www.w3.org/1999/xlink" x="0px" y="0px"
	 viewBox="0 0 128 128" style="enable-background:new 0 0 128 128;" xml:space="preserve">
<g id="_x35_">
	<path id="icon_4_" style="fill:#262626;" d="M81.643,80.138h24.379v24.514H81.643V80.138z M59.682,64.382V70.4l14.387,16.078
		v18.174h4.193V76.757h31.141v27.895h4.21V86.478L128,70.4v-6.019H59.682z M111.922,60.359v-4.467
		c0-3.773-12.204-8.528-12.204-8.528l-5.878,7.384l-6.087-7.324c0,0-11.995,4.742-11.995,8.468v4.467H111.922z M93.84,44.287
		c5.175,0,9.041-4.234,9.041-9.457v-3.154c0-5.223-3.865-9.457-9.041-9.457c-5.176,0-9.041,4.234-9.041,9.457v3.154
		C84.8,40.053,88.665,44.287,93.84,44.287z M31.88,105.781v-4.585c0-2.484,8.406-6.114,15.284-6.114s15.284,3.63,15.284,6.114v4.585
		H31.88z M54.807,80.839v5.561c0,3.951-3.691,7.154-7.642,7.154c-3.951,0-7.642-3.203-7.642-7.154v-5.561
		c0-3.951,3.691-7.154,7.642-7.154C51.116,73.684,54.807,76.887,54.807,80.839z M0,105.781v-4.585c0-2.484,8.406-6.114,15.284-6.114
		s15.284,3.63,15.284,6.114v4.585H0z M22.927,80.839v5.561c0,3.951-3.691,7.154-7.642,7.154c-3.951,0-7.642-3.203-7.642-7.154
		v-5.561c0-3.951,3.691-7.154,7.642-7.154C19.236,73.684,22.927,76.887,22.927,80.839z M93.583,50.447l2.642-4.332h-5.283
		L93.583,50.447z"/>
</g>
<g id="Layer_1">
</g>
</svg>
