<?xml version="1.0" encoding="utf-8"?>
<!-- Generator: Adobe Illustrator 23.0.6, SVG Export Plug-In . SVG Version: 6.00 Build 0)  -->
<svg version="1.1" id="Layer_1" xmlns="http://www.w3.org/2000/svg" xmlns:xlink="http://www.w3.org/1999/xlink" x="0px" y="0px"
	 viewBox="0 0 128 128" style="enable-background:new 0 0 128 128;" xml:space="preserve">
<style type="text/css">
	.st0{fill:#318FB5;}
	.st1{fill:#F7D6BF;}
	.st2{fill:#EABFA2;}
	.st3{fill:#172956;}
</style>
<title>COOPERATION</title>
<g>
	<g>
		<rect x="22.2" y="48.4" class="st0" width="12.9" height="37.8"/>
		<path class="st1" d="M82.3,81L82.3,81c-0.5,0.5-0.9,0.7-1.4,0.9c0,0,0,0,0,0c-0.2,0-0.4,0.1-0.6,0.2h0c-1.1,0.2-2.3-0.2-3.1-1
			c0.7,0.7,1,1.6,1,2.5v0c0,0.9-0.4,1.8-1,2.5l-0.1,0.1c-0.7,0.7-1.6,1-2.5,1h0c-0.9,0-1.8-0.4-2.5-1c0.7,0.7,1,1.6,1,2.5v0
			c0,0.9-0.4,1.8-1,2.5L72,91.4c-0.7,0.7-1.6,1-2.5,1h0c-0.9,0-1.8-0.4-2.5-1l-1.2-1.2c1.4,1.4,1.4,3.6,0,5c0,0,0,0,0,0l-0.1,0.1
			c-0.3,0.3-0.7,0.6-1.2,0.8h0c-1.3,0.5-2.8,0.2-3.8-0.8L52,86.6l-2.7-2.7l-0.6-0.6c-0.8-0.8-1.8-1.2-2.9-1.2H35.1l0-29h22
			c1.5,0,3,0.6,4.1,1.7l2.5,2.5L52.3,68.7c4.3,4.3,11.4,4.3,15.7,0c0,0,0,0,0,0l2.8-2.8c0.9,0.9,2,1.5,3.2,1.8l8.3,8.3
			C83.7,77.4,83.7,79.6,82.3,81z"/>
		<rect x="92.4" y="48.1" class="st0" width="12.9" height="37.8"/>
		<path class="st2" d="M92.4,81.9H81.7c-0.3,0-0.5,0-0.8,0.1c0.5-0.2,0.9-0.4,1.3-0.8l0.1-0.1c1.4-1.4,1.4-3.6,0-5L74,67.7
			c-1.2-0.3-2.3-1-3.2-1.8l-2.8,2.8c-4.3,4.3-11.4,4.3-15.7,0c0,0,0,0,0,0l11.3-11.3l2.7-2.7c0,0,0.1-0.1,0.1-0.1
			c1.1-1,2.5-1.6,3.9-1.5h21.9L92.4,81.9z"/>
	</g>
	<path class="st3" d="M107.1,64.7v1.2c0,1-0.8,1.8-1.8,1.8s-1.8-0.8-1.8-1.8v-1.2c0-1,0.8-1.8,1.8-1.8S107.1,63.7,107.1,64.7z
		 M107.1,48.1v9.2c0,1-0.8,1.8-1.8,1.8s-1.8-0.8-1.8-1.8v-7.4h-9.4v34.3h9.4V71.6c0-1,0.8-1.8,1.8-1.8s1.8,0.8,1.8,1.8v14.3
		c0,1-0.8,1.7-1.8,1.8H92.4c-1,0-1.8-0.8-1.8-1.8v-2.3h-9c-0.7,0-0.8,0.2-1.7,0.3c-0.1,1.3-0.6,2.5-1.5,3.4
		c-0.1,0.1-1.3,1.6-3.6,1.7c-0.1,1.3-0.6,2.5-1.5,3.5c-0.1,0.1-1.9,2.2-5,1.5c-0.3,1-0.8,1.8-1.5,2.5c-2.1,2.1-5.5,2-7.5,0
		c-0.5-0.5-12-12-11.9-11.9c-0.4-0.4-1.1-0.7-1.7-0.7h-9v2.3c0,1-0.8,1.8-1.8,1.8H22.2c-1,0-1.7-0.8-1.8-1.8V48.4
		c0-1,0.8-1.7,1.8-1.8h12.9c1,0,1.8,0.8,1.8,1.8v3h5.5c1,0,1.8,0.8,1.8,1.8s-0.8,1.8-1.8,1.8h-5.5l0,25.5h9c1.6,0,3.1,0.6,4.2,1.7
		c0,0,10.9,10.9,11.9,11.9c0.6,0.6,1.8,0.8,2.5,0c0.9-0.9,0.8-2,0.1-2.7l0,0l-4.2-4.2c-0.7-0.7-0.7-1.8,0-2.5c0.7-0.7,1.8-0.7,2.4,0
		l5.4,5.4c0.6,0.6,1.8,0.8,2.6-0.1c0.7-0.7,0.8-1.8,0-2.6c-0.8-0.8-5.7-5.7-5.4-5.4c-0.7-0.7-0.7-1.8,0-2.5s1.8-0.7,2.5,0l5.4,5.4v0
		c0.6,0.6,1.7,0.8,2.6-0.1c0.7-0.7,0.7-1.8,0-2.5c-0.8-0.8-5.7-5.7-5.4-5.4c-0.7-0.7-0.7-1.8,0-2.5c0.7-0.7,1.8-0.7,2.4,0
		c0.1,0.1,5.4,5.4,5.4,5.4c0.6,0.6,1.7,0.8,2.6-0.1c0.7-0.7,0.7-1.8,0-2.6l-8-8c-0.8-0.2-1.5-0.6-2.1-1l-1.7,1.7c-5,5-13.2,5-18.2,0
		c-0.7-0.7-0.7-1.8,0-2.5c0,0,0,0,0,0l10.1-10.1l-1.3-1.3c-0.8-0.7-1.8-1.2-2.8-1.2h-7.8c-1,0-1.8-0.8-1.8-1.8s0.8-1.8,1.8-1.8h7.8
		c2,0,3.9,0.8,5.3,2.2l1.3,1.3l1.5-1.5c1.3-1.4,3.3-2.2,5.3-2.2h20.2v-3c0-1,0.8-1.8,1.8-1.8l0,0h12.9
		C106.3,46.4,107.1,47.2,107.1,48.1z M33.3,50.1h-9.4v34.3h9.4V50.1z M90.7,80.1l0-25.5H70.5c-1,0-2,0.4-2.7,1.1L54.9,68.5
		c3.7,2.5,8.7,2.1,11.9-1.1c0.1-0.1,3-3,2.8-2.8c0.7-0.6,1.9-0.7,2.5,0.1c0.6,0.6,1.4,1.1,2.3,1.3h0h0c1.9,0.5,3.8,0,5.2-1.4
		c0.7-0.7,1.8-0.7,2.5,0c0.7,0.7,0.7,1.8,0,2.5l0,0c-1.1,1.1-2.5,1.9-4,2.3l5.4,5.4c1.5,1.5,1.9,3.6,1.3,5.4L90.7,80.1z"/>
</g>
</svg>
