<svg xmlns="http://www.w3.org/2000/svg" viewBox="0 0 88 88"><title>Artboard-9</title><g id="Award"><path d="M41,60.3691a2.3666,2.3666,0,0,0,1.7939,2.2989L43,62.7194V58.0373A2.3665,2.3665,0,0,0,41,60.3691Z" style="fill:#202021"/><path d="M45,69.9627a2.3644,2.3644,0,0,0,.2061-4.6307L45,65.2806Z" style="fill:#202021"/><path d="M44,51A13,13,0,1,0,57,64,13.0147,13.0147,0,0,0,44,51Zm5,10a1,1,0,0,1-2,0v-.6309a2.3665,2.3665,0,0,0-2-2.3318v5.1818l.69.1725a4.3567,4.3567,0,0,1-.69,8.571V73a1,1,0,0,1-2,0V71.9626a4.36,4.36,0,0,1-4-4.3317V67a1,1,0,0,1,2,0v.6309a2.3665,2.3665,0,0,0,2,2.3318V64.7809l-.69-.1725a4.3567,4.3567,0,0,1,.69-8.571V55a1,1,0,0,1,2,0v1.0374a4.36,4.36,0,0,1,4,4.3317Z" style="fill:#202021"/><path d="M64,58.7231V53a1.0007,1.0007,0,0,0-.4854-.8574L58.7285,49.271l-2.8711-4.7856A.999.999,0,0,0,55,44H49.2773l-4.7627-2.8574a.9982.9982,0,0,0-1.0292,0L38.7227,44H33a.999.999,0,0,0-.8574.4854L29.2715,49.271l-4.7861,2.8716A1.0007,1.0007,0,0,0,24,53v5.7231l-2.8574,4.7623a.9982.9982,0,0,0,0,1.0292L24,69.2769V75a1.0007,1.0007,0,0,0,.4854.8574l4.7861,2.8716,2.8711,4.7856A.999.999,0,0,0,33,84h5.7227l4.7627,2.8574a1,1,0,0,0,1.0292,0L49.2773,84H55a.999.999,0,0,0,.8574-.4854l2.8711-4.7856,4.7861-2.8716A1.0007,1.0007,0,0,0,64,75V69.2769l2.8574-4.7623a.9982.9982,0,0,0,0-1.0292ZM44,79A15,15,0,1,1,59,64,15.0167,15.0167,0,0,1,44,79Z" style="fill:#202021"/><path d="M74.71,7.29l-6-6a1.0065,1.0065,0,0,0-.9-.27.9773.9773,0,0,0-.73.59L49.89,42H55a3.0091,3.0091,0,0,1,2.57,1.46l2.04,3.39L74.93,8.37A1.0079,1.0079,0,0,0,74.71,7.29Z" style="fill:#202021"/><path d="M30.43,43.46A3.0091,3.0091,0,0,1,33,42h5.11L20.92,1.61a.9773.9773,0,0,0-.73-.59.9984.9984,0,0,0-.9.27l-6,6a1.0079,1.0079,0,0,0-.22,1.08L28.39,46.85Z" style="fill:#202021"/><polygon points="60.91 11 65.17 1 22.83 1 27.08 11 60.91 11" style="fill:#202021"/></g></svg>