<?xml version="1.0" encoding="utf-8"?>
<!-- Generator: Adobe Illustrator 22.0.0, SVG Export Plug-In . SVG Version: 6.00 Build 0)  -->
<svg version="1.1" xmlns="http://www.w3.org/2000/svg" xmlns:xlink="http://www.w3.org/1999/xlink" x="0px" y="0px"
	 viewBox="0 0 256 256" style="enable-background:new 0 0 256 256;" xml:space="preserve">
<style type="text/css">
	.st0{display:none;}
	.st1{display:inline;}
	.st2{fill:none;stroke:#6B1D1D;stroke-width:0.5;stroke-miterlimit:10;}
	.st3{fill:#3A312A;}
	.st4{fill:#87796F;}
	.st5{fill:#D5DE58;}
	.st6{fill:#695B51;}
	.st7{fill:#FCE8CB;}
	.st8{fill:#F16C7A;}
	.st9{fill:#8AC6DD;}
	.st10{fill:#DECAAD;}
	.st11{fill:#D6DF58;}
	.st12{fill-rule:evenodd;clip-rule:evenodd;fill:#FCE8CB;}
	.st13{fill:#F5978A;}
	.st14{fill:#D7E057;}
	.st15{fill-rule:evenodd;clip-rule:evenodd;fill:#87796F;}
	.st16{fill:#6CA8BF;}
	.st17{fill:#B9C239;}
	.st18{fill:#D34E5C;}
	.st19{fill:#FAE6CA;}
	.st20{fill:#F8E4C8;}
	.st21{fill:#8AC5DC;}
	.st22{fill:#EF6D7A;}
	.st23{fill:#EB6E7A;}
	.st24{fill:#89C4DB;}
	.st25{fill-rule:evenodd;clip-rule:evenodd;fill:#F16C7A;}
	.st26{fill:#F7E3C7;}
	.st27{fill:#F6E2C6;}
	.st28{fill:#ED6E7A;}
	.st29{fill:#8AC3DA;}
	.st30{fill:#D5DC57;}
	.st31{fill-rule:evenodd;clip-rule:evenodd;fill:#D7E057;}
	.st32{fill-rule:evenodd;clip-rule:evenodd;fill:#F8E4C8;}
	.st33{fill:#D4DB56;}
	.st34{fill:#F59689;}
	.st35{fill:#DDC9AC;}
	.st36{fill:#D24E5C;}
	.st37{fill:#6A5C52;}
	.st38{fill:#6CA6BE;}
	.st39{fill:#B8C136;}
	.st40{fill-rule:evenodd;clip-rule:evenodd;fill:#FAE6CA;}
</style>
<g id="Layer_2" class="st0">
	<g class="st1">
		<g>
			<line class="st2" x1="0" y1="4.829" x2="256" y2="4.829"/>
			<line class="st2" x1="0" y1="16.56" x2="256" y2="16.56"/>
			<line class="st2" x1="0" y1="28.29" x2="256" y2="28.29"/>
			<line class="st2" x1="0" y1="40.021" x2="256" y2="40.021"/>
			<line class="st2" x1="0" y1="51.751" x2="256" y2="51.751"/>
			<line class="st2" x1="0" y1="63.482" x2="256" y2="63.482"/>
			<line class="st2" x1="0" y1="75.213" x2="256" y2="75.213"/>
			<line class="st2" x1="0" y1="86.943" x2="256" y2="86.943"/>
			<line class="st2" x1="0" y1="98.674" x2="256" y2="98.674"/>
			<line class="st2" x1="0" y1="110.404" x2="256" y2="110.404"/>
			<line class="st2" x1="0" y1="122.135" x2="256" y2="122.135"/>
			<line class="st2" x1="0" y1="133.865" x2="256" y2="133.865"/>
			<line class="st2" x1="0" y1="145.596" x2="256" y2="145.596"/>
			<line class="st2" x1="0" y1="157.326" x2="256" y2="157.326"/>
			<line class="st2" x1="0" y1="169.057" x2="256" y2="169.057"/>
			<line class="st2" x1="0" y1="180.788" x2="256" y2="180.788"/>
			<line class="st2" x1="0" y1="192.518" x2="256" y2="192.518"/>
			<line class="st2" x1="0" y1="204.249" x2="256" y2="204.249"/>
			<line class="st2" x1="0" y1="215.979" x2="256" y2="215.979"/>
			<line class="st2" x1="0" y1="227.71" x2="256" y2="227.71"/>
			<line class="st2" x1="0" y1="239.44" x2="256" y2="239.44"/>
			<line class="st2" x1="0" y1="251.171" x2="256" y2="251.171"/>
		</g>
		<g>
			<line class="st2" x1="251.171" y1="0" x2="251.171" y2="256"/>
			<line class="st2" x1="239.44" y1="0" x2="239.44" y2="256"/>
			<line class="st2" x1="227.71" y1="0" x2="227.71" y2="256"/>
			<line class="st2" x1="215.979" y1="0" x2="215.979" y2="256"/>
			<line class="st2" x1="204.249" y1="0" x2="204.249" y2="256"/>
			<line class="st2" x1="192.518" y1="0" x2="192.518" y2="256"/>
			<line class="st2" x1="180.788" y1="0" x2="180.788" y2="256"/>
			<line class="st2" x1="169.057" y1="0" x2="169.057" y2="256"/>
			<line class="st2" x1="157.326" y1="0" x2="157.326" y2="256"/>
			<line class="st2" x1="145.596" y1="0" x2="145.596" y2="256"/>
			<line class="st2" x1="133.865" y1="0" x2="133.865" y2="256"/>
			<line class="st2" x1="122.135" y1="0" x2="122.135" y2="256"/>
			<line class="st2" x1="110.404" y1="0" x2="110.404" y2="256"/>
			<line class="st2" x1="98.674" y1="0" x2="98.674" y2="256"/>
			<line class="st2" x1="86.943" y1="0" x2="86.943" y2="256"/>
			<line class="st2" x1="75.212" y1="0" x2="75.212" y2="256"/>
			<line class="st2" x1="63.482" y1="0" x2="63.482" y2="256"/>
			<line class="st2" x1="51.751" y1="0" x2="51.751" y2="256"/>
			<line class="st2" x1="40.021" y1="0" x2="40.021" y2="256"/>
			<line class="st2" x1="28.29" y1="0" x2="28.29" y2="256"/>
			<line class="st2" x1="16.56" y1="0" x2="16.56" y2="256"/>
			<line class="st2" x1="4.829" y1="0" x2="4.829" y2="256"/>
		</g>
	</g>
</g>
<g id="Layer_1">
	<g>
		<path class="st14" d="M140.648,16.314H33.605c-9.447,0-17.105,7.658-17.105,17.106v130.289c0,9.447,7.658,17.105,17.105,17.105
			h188.789c9.447,0,17.105-7.658,17.105-17.105V33.419c0-9.447-7.658-17.106-17.105-17.106h-69.042H140.648z"/>
		<path class="st3" d="M222.395,182.314H33.605c-10.259,0-18.605-8.346-18.605-18.606V33.419c0-10.259,8.347-18.606,18.605-18.606
			h107.043c0.828,0,1.5,0.671,1.5,1.5c0,0.829-0.672,1.5-1.5,1.5H33.605C25.001,17.813,18,24.815,18,33.419v130.289
			c0,8.605,7.001,15.606,15.605,15.606h188.789c8.604,0,15.605-7.001,15.605-15.606V33.419c0-8.605-7.001-15.606-15.605-15.606
			h-69.042c-0.828,0-1.5-0.671-1.5-1.5c0-0.829,0.672-1.5,1.5-1.5h69.042c10.259,0,18.605,8.347,18.605,18.606v130.289
			C241,173.967,232.653,182.314,222.395,182.314z"/>
		<path class="st12" d="M101.584,89.883c0,4.325-3.506,7.832-7.832,7.832c-4.326,0-7.832-3.506-7.832-7.832
			c0-4.326,3.506-7.832,7.832-7.832C98.077,82.051,101.584,85.557,101.584,89.883z"/>
		<path class="st3" d="M93.752,99.215c-5.146,0-9.332-4.187-9.332-9.332s4.187-9.332,9.332-9.332c5.145,0,9.332,4.187,9.332,9.332
			S98.897,99.215,93.752,99.215z M93.752,83.551c-3.491,0-6.332,2.84-6.332,6.332s2.841,6.332,6.332,6.332
			c3.491,0,6.332-2.84,6.332-6.332S97.243,83.551,93.752,83.551z"/>
		<path class="st7" d="M162.651,86.081c0,19.175-18.467,48.608-34.72,48.608c-15.514,0-34.72-29.433-34.72-48.608
			s15.545-34.72,34.72-34.72C147.107,51.361,162.651,66.906,162.651,86.081z"/>
		<path class="st3" d="M127.932,136.189c-7.715,0-16.612-6.473-24.411-17.76c-7.284-10.54-11.809-22.935-11.809-32.347
			c0-19.972,16.248-36.22,36.22-36.22c19.972,0,36.22,16.248,36.22,36.22C164.151,106.321,145.072,136.189,127.932,136.189z
			 M127.932,52.861c-18.317,0-33.22,14.902-33.22,33.22c0,17.9,18.559,47.107,33.22,47.107c6.887,0,15.191-6.152,22.215-16.458
			c6.788-9.96,11.005-21.704,11.005-30.65C161.151,67.764,146.249,52.861,127.932,52.861z"/>
		<path class="st3" d="M119.062,85.689c0,1.872-1.517,3.389-3.389,3.389c-1.871,0-3.389-1.517-3.389-3.389
			c0-1.872,1.517-3.389,3.389-3.389C117.545,82.3,119.062,83.817,119.062,85.689z"/>
		<path class="st3" d="M143.578,85.689c0,1.872-1.517,3.389-3.389,3.389c-1.872,0-3.389-1.517-3.389-3.389
			c0-1.872,1.517-3.389,3.389-3.389C142.061,82.3,143.578,83.817,143.578,85.689z"/>
		<path class="st13" d="M114.738,95.764c0,2.41-2.614,4.364-5.838,4.364c-3.224,0-5.838-1.954-5.838-4.364s2.614-4.364,5.838-4.364
			C112.124,91.4,114.738,93.354,114.738,95.764z"/>
		<path class="st13" d="M152.8,95.764c0,2.41-2.614,4.364-5.838,4.364s-5.838-1.954-5.838-4.364s2.614-4.364,5.838-4.364
			S152.8,93.354,152.8,95.764z"/>
		<path class="st4" d="M128.332,43.698c-19.847,0-35.936,15.382-35.936,34.358c0,2.008,0.363,3.504,1.038,5.374
			c0.318,0.882,5.464-1.933,5.902-2.242c2.191-1.543,3.982-3.633,5.32-5.945c0.553-0.961,1.015-1.939,1.386-2.918
			c1.184-3.121,4.403-11.806,7.671-11.124c4.382,0.914,9.349,1.43,14.618,1.43c5.269,0,10.236-0.516,14.619-1.43
			c3.268-0.681,6.487,8.003,7.671,11.124c0.371,0.978,0.833,1.956,1.386,2.918c2.211,3.824,5.945,7.464,10.487,8.127
			c0.011-0.219,0.288-0.294,0.495-0.369c1.487-0.54,1.278-3.753,1.278-4.945C164.268,59.081,148.179,43.698,128.332,43.698z"/>
		<path class="st3" d="M93.726,85.083c-0.213,0-0.406-0.024-0.576-0.078c-0.531-0.167-0.941-0.556-1.126-1.065
			c-0.676-1.871-1.127-3.588-1.128-5.883c0-19.772,16.794-35.858,37.437-35.858c20.643,0,37.437,16.085,37.437,35.858l0.004,0.38
			c0.026,1.761,0.073,5.014-2.156,5.931c-0.052,0.059-0.109,0.113-0.171,0.164c-0.326,0.268-0.75,0.385-1.167,0.324
			c-4.408-0.643-8.732-3.955-11.569-8.86c-0.583-1.013-1.084-2.068-1.489-3.137l-0.075-0.197c-3.753-9.901-5.566-10.06-5.887-9.99
			c-4.652,0.97-9.674,1.461-14.926,1.461c-5.252,0-10.273-0.492-14.925-1.461c-0.317-0.07-2.137,0.088-5.89,9.997l-0.072,0.191
			c-0.407,1.072-0.908,2.127-1.489,3.135c-1.515,2.618-3.505,4.837-5.756,6.423C100.157,82.445,95.935,85.083,93.726,85.083z
			 M128.332,45.198c-18.988,0-34.437,14.74-34.437,32.858c0.001,1.478,0.218,2.617,0.605,3.848c1.257-0.463,3.462-1.605,3.986-1.951
			c1.885-1.328,3.574-3.219,4.872-5.461c0.5-0.868,0.932-1.777,1.282-2.699l0.071-0.189c2.52-6.65,5.387-12.693,9.309-11.871
			c4.449,0.928,9.265,1.398,14.312,1.398c5.047,0,9.862-0.47,14.313-1.398c3.909-0.815,6.786,5.219,9.305,11.864l0.074,0.196
			c0.349,0.92,0.78,1.829,1.283,2.702c2.232,3.86,5.464,6.532,8.752,7.27c0.108-0.055,0.227-0.106,0.357-0.152
			c0.185-0.237,0.388-0.981,0.355-3.132l-0.004-0.425C162.769,59.938,147.32,45.198,128.332,45.198z"/>
		<path class="st4" d="M98.561,50.441c5.893,7.421,12.944,15.333,21.458,17.754c13.714,3.899,37.989-0.965,37.989-20.705
			c0-12.623-10.58-27.879-30.325-16.263c-24.475,14.398-38.681-13.28-38.681-0.657c0,3.99,1.607,7.969,3.717,11.59L98.561,50.441z"
			/>
		<path class="st3" d="M129.615,70.93c-3.623,0-7.071-0.458-10.006-1.292c-8.762-2.491-15.859-10.251-22.224-18.264
			c-0.018-0.022-0.034-0.045-0.051-0.068l-5.841-8.281c-0.025-0.036-0.049-0.072-0.07-0.109c-2.639-4.527-3.922-8.566-3.922-12.345
			c0-1.665,0.194-3.687,1.71-4.545c1.793-1.016,3.879,0.235,7.038,2.13c6.239,3.743,16.685,10.008,30.672,1.78
			c10.616-6.247,17.989-4.616,22.305-2.148c7.103,4.062,10.281,12.823,10.281,19.704c0,6.978-2.917,12.87-8.436,17.039
			C145.117,69.026,137.003,70.93,129.615,70.93z M99.762,49.542c6.046,7.609,12.733,14.955,20.668,17.21
			c8.202,2.331,20.74,1.495,28.834-4.617c4.807-3.631,7.244-8.558,7.244-14.645c0-6.014-2.712-13.634-8.77-17.099
			c-5.2-2.974-11.871-2.238-19.294,2.129c-15.523,9.129-27.371,2.025-33.736-1.793c-1.472-0.882-3.279-1.967-3.986-2.052
			c-0.08,0.198-0.219,0.713-0.219,1.894c0,3.219,1.139,6.746,3.481,10.779L99.762,49.542z"/>
		<path class="st3" d="M127.931,115.744c-5.108,0-8.792-2.297-10.948-6.827c-0.355-0.748-0.038-1.643,0.71-1.999
			c0.748-0.357,1.644-0.039,1.999,0.71c1.661,3.49,4.279,5.116,8.239,5.116c4.996,0,7.541-3.27,8.189-4.998
			c0.291-0.776,1.153-1.17,1.931-0.878c0.775,0.291,1.169,1.155,0.878,1.931C137.676,112.144,133.699,115.744,127.931,115.744z"/>
		<path class="st3" d="M126.57,134.635c-20.814,0-37.748-16.934-37.748-37.748c0-0.829,0.672-1.5,1.5-1.5c0.828,0,1.5,0.671,1.5,1.5
			c0,19.16,15.588,34.748,34.748,34.748c0.828,0,1.5,0.671,1.5,1.5S127.398,134.635,126.57,134.635z"/>
		<path class="st22" d="M132.117,137.178h-7.503c-2.05,0-3.712-1.662-3.712-3.712v-2.123c0-2.05,1.662-3.711,3.712-3.711h7.503
			c2.05,0,3.711,1.662,3.711,3.711v2.123C135.829,135.517,134.167,137.178,132.117,137.178z"/>
		<path class="st3" d="M132.117,138.678h-7.503c-2.873,0-5.211-2.338-5.211-5.211v-2.123c0-2.873,2.338-5.211,5.211-5.211h7.503
			c2.874,0,5.212,2.338,5.212,5.211v2.123C137.329,136.34,134.991,138.678,132.117,138.678z M124.614,129.133
			c-1.219,0-2.211,0.992-2.211,2.211v2.123c0,1.219,0.992,2.211,2.211,2.211h7.503c1.22,0,2.212-0.992,2.212-2.211v-2.123
			c0-1.219-0.992-2.211-2.212-2.211H124.614z"/>
		<path class="st22" d="M80.278,93.3v1.623c0,4.184,3.391,7.575,7.575,7.575h4.124c1.162,0,2.104-0.942,2.104-2.104V78.678
			c0-1.162-0.942-2.104-2.104-2.104h-4.124c-4.184,0-7.575,3.392-7.575,7.575v1.595V93.3z"/>
		<path class="st3" d="M91.977,103.998h-4.124c-5.004,0-9.075-4.071-9.075-9.075V84.149c0-5.004,4.071-9.075,9.075-9.075h4.124
			c1.987,0,3.604,1.617,3.604,3.604v21.715C95.581,102.381,93.965,103.998,91.977,103.998z M87.853,78.074
			c-3.35,0-6.075,2.725-6.075,6.075v10.773c0,3.35,2.726,6.075,6.075,6.075h4.124c0.333,0,0.604-0.271,0.604-0.604V78.678
			c0-0.333-0.271-0.604-0.604-0.604H87.853z"/>
		<path class="st22" d="M164.338,102.498h2.675c4.81,0,8.71-3.899,8.71-8.71v-8.505c0-4.81-3.899-8.71-8.71-8.71h-2.675
			c-1.336,0-2.419,1.083-2.419,2.419v21.085C161.919,101.415,163.002,102.498,164.338,102.498z"/>
		<path class="st3" d="M167.013,103.998h-2.675c-2.161,0-3.919-1.758-3.919-3.919V78.993c0-2.161,1.758-3.919,3.919-3.919h2.675
			c5.629,0,10.209,4.58,10.209,10.209v8.504C177.222,99.418,172.642,103.998,167.013,103.998z M164.338,78.074
			c-0.507,0-0.919,0.412-0.919,0.919v21.085c0,0.507,0.412,0.919,0.919,0.919h2.675c3.975,0,7.209-3.234,7.209-7.209v-8.504
			c0-3.975-3.234-7.209-7.209-7.209H164.338z"/>
		<path class="st3" d="M99.948,241.186c-0.828,0-1.5-0.671-1.5-1.5v-10.878c0-0.829,0.672-1.5,1.5-1.5c0.828,0,1.5,0.671,1.5,1.5
			v10.878C101.448,240.515,100.776,241.186,99.948,241.186z"/>
		<path class="st7" d="M55.646,239.685h27.969v-13.709c0-8.355-6.773-15.128-15.128-15.128h-9.995v-6.496
			c-2.765,1.917-5.625,3.047-8.401,3.047c-2.663,0-5.472-1.142-8.226-3.081h-0.17v6.53H31.695c-8.356,0-15.128,6.773-15.128,15.128
			v13.709h26.287H55.646z"/>
		<path class="st3" d="M83.615,241.185H55.646c-0.828,0-1.5-0.671-1.5-1.5c0-0.829,0.672-1.5,1.5-1.5h26.469v-12.21
			c0-7.515-6.114-13.628-13.629-13.628h-9.995c-0.828,0-1.5-0.671-1.5-1.5v-3.824c-2.357,1.246-4.67,1.875-6.9,1.875
			c-2.201,0-4.513-0.663-6.895-1.977v3.925c0,0.829-0.672,1.5-1.5,1.5H31.694c-7.515,0-13.628,6.113-13.628,13.628v12.21h24.787
			c0.828,0,1.5,0.671,1.5,1.5c0,0.829-0.672,1.5-1.5,1.5H16.566c-0.828,0-1.5-0.671-1.5-1.5v-13.71
			c0-9.169,7.459-16.628,16.628-16.628h8.501v-5.03c0-0.829,0.672-1.5,1.5-1.5h0.17c0.31,0,0.611,0.096,0.864,0.274
			c2.645,1.863,5.121,2.808,7.361,2.808c2.347,0,4.886-0.936,7.546-2.78c0.459-0.319,1.056-0.354,1.55-0.097
			c0.495,0.259,0.805,0.771,0.805,1.329v4.996h8.495c9.169,0,16.629,7.459,16.629,16.628v13.71
			C85.115,240.514,84.443,241.185,83.615,241.185z"/>
		<path class="st9" d="M55.646,239.686h27.969v-13.715c0-8.355-6.773-15.128-15.128-15.128h-2.391l0.062,0.045l-10.396,13.788
			l-5.365-4.042l-5.365,4.042l-10.396-13.788l0.062-0.045h-3.002c-8.356,0-15.128,6.773-15.128,15.128v13.715h26.286H55.646z"/>
		<path class="st3" d="M83.615,241.186H55.646c-0.828,0-1.5-0.671-1.5-1.5c0-0.829,0.672-1.5,1.5-1.5h26.469v-12.215
			c0-7.515-6.113-13.628-13.628-13.628H66.94l-9.981,13.237c-0.497,0.663-1.438,0.793-2.1,0.295l-4.463-3.362l-4.463,3.362
			c-0.663,0.498-1.602,0.366-2.1-0.295l-9.982-13.237h-2.157c-7.515,0-13.629,6.114-13.629,13.628v12.215h24.787
			c0.828,0,1.5,0.671,1.5,1.5c0,0.829-0.672,1.5-1.5,1.5H16.566c-0.828,0-1.5-0.671-1.5-1.5v-13.715
			c0-9.169,7.46-16.628,16.629-16.628h3.002c0.646,0,1.217,0.412,1.422,1.023l9.207,12.211l4.168-3.14
			c0.533-0.402,1.271-0.402,1.805,0l4.168,3.14l9.288-12.318c0.233-0.542,0.742-0.915,1.341-0.915h2.392
			c9.169,0,16.628,7.459,16.628,16.628v13.715C85.115,240.515,84.443,241.186,83.615,241.186z"/>
		<path class="st12" d="M30.066,173.345c0,3.288-2.665,5.953-5.953,5.953c-3.288,0-5.953-2.665-5.953-5.953
			c0-3.288,2.665-5.953,5.953-5.953C27.401,167.393,30.066,170.058,30.066,173.345z"/>
		<path class="st3" d="M24.113,180.798c-4.109,0-7.452-3.343-7.452-7.453s3.343-7.453,7.452-7.453s7.453,3.343,7.453,7.453
			S28.223,180.798,24.113,180.798z M24.113,168.893c-2.455,0-4.452,1.998-4.452,4.453s1.997,4.453,4.452,4.453
			s4.453-1.998,4.453-4.453S26.568,168.893,24.113,168.893z"/>
		<path class="st12" d="M82.023,173.345c0,3.288-2.665,5.953-5.953,5.953c-3.287,0-5.953-2.665-5.953-5.953
			c0-3.288,2.665-5.953,5.953-5.953C79.357,167.393,82.023,170.058,82.023,173.345z"/>
		<path class="st3" d="M76.07,180.798c-4.109,0-7.453-3.343-7.453-7.453s3.344-7.453,7.453-7.453s7.452,3.343,7.452,7.453
			S80.18,180.798,76.07,180.798z M76.07,168.893c-2.455,0-4.453,1.998-4.453,4.453s1.998,4.453,4.453,4.453s4.452-1.998,4.452-4.453
			S78.525,168.893,76.07,168.893z"/>
		<path class="st7" d="M76.48,170.456c0,14.574-14.036,36.944-26.389,36.944c-11.791,0-26.389-22.37-26.389-36.944
			c0-14.574,11.815-26.389,26.389-26.389C64.666,144.067,76.48,155.882,76.48,170.456z"/>
		<path class="st3" d="M50.092,208.9c-12.93,0-27.889-23.265-27.889-38.444c0-15.378,12.511-27.889,27.889-27.889
			s27.889,12.511,27.889,27.889C77.98,185.985,63.29,208.9,50.092,208.9z M50.092,145.567c-13.724,0-24.889,11.165-24.889,24.889
			c0,13.468,13.904,35.444,24.889,35.444c11.299,0,24.889-21.77,24.889-35.444C74.98,156.732,63.815,145.567,50.092,145.567z"/>
		<path class="st3" d="M43.351,170.158c0,1.423-1.153,2.576-2.576,2.576c-1.423,0-2.576-1.153-2.576-2.576s1.153-2.576,2.576-2.576
			C42.198,167.582,43.351,168.735,43.351,170.158z"/>
		<path class="st3" d="M61.984,170.158c0,1.423-1.153,2.576-2.576,2.576c-1.422,0-2.576-1.153-2.576-2.576s1.153-2.576,2.576-2.576
			C60.831,167.582,61.984,168.735,61.984,170.158z"/>
		<path class="st13" d="M40.064,177.815c0,1.832-1.986,3.317-4.437,3.317c-2.45,0-4.437-1.485-4.437-3.317
			c0-1.832,1.986-3.317,4.437-3.317C38.078,174.498,40.064,175.983,40.064,177.815z"/>
		<path class="st13" d="M68.993,177.815c0,1.832-1.986,3.317-4.437,3.317c-2.45,0-4.437-1.485-4.437-3.317
			c0-1.832,1.986-3.317,4.437-3.317C67.007,174.498,68.993,175.983,68.993,177.815z"/>
		<path class="st4" d="M50.396,138.243c-15.085,0-27.313,11.691-27.313,26.114c0,1.526,0.276,2.663,0.789,4.085
			c0.242,0.67,4.153-1.469,4.486-1.704c1.665-1.173,3.026-2.762,4.043-4.519c0.421-0.73,0.771-1.474,1.054-2.217
			c0.9-2.372,3.347-8.973,5.83-8.455c3.331,0.694,7.106,1.087,11.111,1.087s7.78-0.392,11.111-1.087
			c2.484-0.518,4.93,6.083,5.83,8.455c0.282,0.744,0.633,1.487,1.054,2.218c1.68,2.906,4.518,5.673,7.971,6.177
			c0.009-0.167,0.219-0.224,0.376-0.281c1.13-0.411,0.972-2.853,0.972-3.759C77.71,149.934,65.481,138.243,50.396,138.243z"/>
		<path class="st3" d="M24.079,170.054c-0.194,0-0.373-0.022-0.532-0.072c-0.512-0.162-0.907-0.537-1.086-1.031
			c-0.527-1.461-0.878-2.802-0.878-4.594c0-15.226,12.926-27.614,28.813-27.614S79.21,149.13,79.21,164.356l0.003,0.283
			c0.021,1.408,0.059,3.993-1.79,4.816c-0.035,0.035-0.071,0.069-0.11,0.101c-0.327,0.268-0.751,0.384-1.168,0.324
			c-3.458-0.504-6.842-3.087-9.053-6.91c-0.455-0.792-0.844-1.611-1.157-2.436l-0.055-0.145c-2.51-6.626-3.777-7.317-4.105-7.372
			c-3.522,0.74-7.363,1.116-11.378,1.116c-4.016,0-7.856-0.376-11.417-1.119c-0.29,0.057-1.556,0.748-4.064,7.368l-0.058,0.151
			c-0.315,0.831-0.704,1.65-1.156,2.435c-1.178,2.035-2.726,3.762-4.479,4.996C29.187,167.988,25.935,170.054,24.079,170.054z
			 M76.606,168.163l0.54,1.399c0.031-0.012,0.064-0.028,0.099-0.048L76.606,168.163z M77.859,168.478L77.859,168.478L77.859,168.478
			z M50.396,139.743c-14.233,0-25.813,11.041-25.813,24.614c0,0.928,0.118,1.677,0.333,2.447c0.906-0.377,2.189-1.041,2.599-1.306
			c1.381-0.972,2.628-2.371,3.589-4.03c0.37-0.644,0.69-1.317,0.949-1.999l0.057-0.15c1.971-5.199,4.243-9.919,7.481-9.241
			c3.36,0.7,6.995,1.055,10.806,1.055c3.81,0,7.444-0.355,10.805-1.055c3.243-0.679,5.514,4.046,7.484,9.248l0.054,0.143
			c0.257,0.677,0.577,1.351,0.952,2.002c1.619,2.8,3.938,4.749,6.299,5.325c0.018-0.008,0.036-0.016,0.055-0.023
			c0.128-0.307,0.185-1.009,0.168-2.09l-0.003-0.327C76.21,150.784,64.63,139.743,50.396,139.743z"/>
		
			<rect x="39.155" y="207.117" transform="matrix(0.7986 -0.6019 0.6019 0.7986 -121.2858 69.0464)" class="st4" width="6.746" height="17.269"/>
		<path class="st3" d="M45.031,226.177c-0.069,0-0.139-0.005-0.209-0.015c-0.394-0.055-0.749-0.265-0.989-0.582l-10.394-13.791
			c-0.239-0.318-0.343-0.717-0.287-1.111c0.056-0.394,0.265-0.75,0.583-0.989l5.388-4.061c0.316-0.239,0.713-0.344,1.111-0.288
			c0.394,0.055,0.75,0.265,0.989,0.583l10.393,13.791c0.498,0.662,0.366,1.602-0.295,2.101l-5.387,4.06
			C45.673,226.072,45.355,226.177,45.031,226.177z M36.738,211.181l8.588,11.395l2.991-2.254l-8.587-11.395L36.738,211.181z"/>
		
			<rect x="54.892" y="207.117" transform="matrix(-0.7986 -0.6019 0.6019 -0.7986 -25.0553 423.1185)" class="st4" width="6.746" height="17.269"/>
		<path class="st3" d="M55.761,226.177c-0.314,0-0.632-0.098-0.901-0.302l-5.388-4.06c-0.318-0.239-0.527-0.595-0.583-0.989
			c-0.056-0.394,0.048-0.794,0.287-1.111l10.393-13.791c0.24-0.318,0.596-0.527,0.989-0.583c0.398-0.057,0.795,0.048,1.111,0.288
			l5.388,4.061c0.318,0.239,0.527,0.595,0.583,0.989c0.056,0.394-0.048,0.794-0.287,1.111L56.96,225.58
			C56.665,225.971,56.216,226.177,55.761,226.177z M52.475,220.322l2.992,2.254l8.588-11.395l-2.992-2.255L52.475,220.322z"/>
		<path class="st3" d="M29.125,241.186c-0.828,0-1.5-0.671-1.5-1.5v-10.835c0-0.829,0.672-1.5,1.5-1.5c0.828,0,1.5,0.671,1.5,1.5
			v10.835C30.625,240.515,29.953,241.186,29.125,241.186z"/>
		<path class="st3" d="M50.091,193.361c-4.033,0-6.941-1.814-8.646-5.393c-0.356-0.748-0.038-1.643,0.71-1.999
			c0.748-0.357,1.644-0.038,1.999,0.709c1.196,2.513,3.083,3.684,5.937,3.684c3.339,0,5.351-2.132,5.888-3.565
			c0.29-0.776,1.151-1.169,1.931-0.878c0.775,0.291,1.169,1.155,0.878,1.931C57.793,190.503,54.646,193.361,50.091,193.361z"/>
		<path class="st7" d="M239.433,225.976v13.709h-67.049v-13.709c0-8.355,6.773-15.128,15.128-15.128h10.001v-6.53h0.17
			c2.753,1.939,5.563,3.081,8.226,3.081c2.776,0,5.636-1.131,8.401-3.047v6.496h9.995
			C232.661,210.848,239.433,217.62,239.433,225.976z"/>
		<path class="st3" d="M239.434,241.185h-67.049c-0.828,0-1.5-0.671-1.5-1.5v-13.71c0-9.169,7.459-16.628,16.628-16.628h8.501v-5.03
			c0-0.829,0.672-1.5,1.5-1.5h0.17c0.31,0,0.611,0.096,0.864,0.274c2.645,1.863,5.121,2.808,7.361,2.808
			c2.346,0,4.885-0.936,7.546-2.78c0.459-0.318,1.056-0.354,1.55-0.096c0.495,0.259,0.805,0.771,0.805,1.329v4.996h8.495
			c9.169,0,16.629,7.459,16.629,16.628v13.71C240.934,240.514,240.262,241.185,239.434,241.185z M173.885,238.185h64.049v-12.21
			c0-7.515-6.114-13.628-13.629-13.628h-9.995c-0.828,0-1.5-0.671-1.5-1.5v-3.824c-2.357,1.246-4.67,1.875-6.9,1.875
			c-2.201,0-4.513-0.663-6.895-1.977v3.925c0,0.829-0.672,1.5-1.5,1.5h-10.001c-7.515,0-13.628,6.113-13.628,13.628V238.185z"/>
		<path class="st14" d="M239.434,225.971v13.715h-67.049v-13.715c0-8.356,6.773-15.128,15.128-15.128h3.002l-0.062,0.045
			l10.396,13.788l5.365-4.042l5.365,4.042l10.396-13.788l-0.062-0.045h2.391C232.661,210.843,239.434,217.616,239.434,225.971z"/>
		<path class="st3" d="M239.434,241.186h-67.049c-0.828,0-1.5-0.671-1.5-1.5v-13.715c0-9.169,7.459-16.628,16.628-16.628h3.002
			c0.645,0,1.216,0.411,1.421,1.02l9.209,12.213l4.167-3.139c0.533-0.403,1.271-0.403,1.805-0.001l4.168,3.14l9.289-12.32
			c0.234-0.54,0.743-0.913,1.341-0.913h2.391c9.169,0,16.629,7.459,16.629,16.628v13.715
			C240.934,240.515,240.262,241.186,239.434,241.186z M173.885,238.186h64.049v-12.215c0-7.515-6.114-13.628-13.629-13.628h-1.547
			l-9.981,13.237c-0.497,0.663-1.438,0.793-2.1,0.295l-4.463-3.362l-4.462,3.362c-0.659,0.498-1.603,0.367-2.1-0.295l-9.981-13.237
			h-2.158c-7.515,0-13.628,6.114-13.628,13.628V238.186z"/>
		<path class="st12" d="M185.884,173.345c0,3.288-2.665,5.953-5.953,5.953s-5.953-2.665-5.953-5.953
			c0-3.288,2.665-5.953,5.953-5.953S185.884,170.058,185.884,173.345z"/>
		<path class="st3" d="M179.932,180.798c-4.109,0-7.452-3.343-7.452-7.453s3.343-7.453,7.452-7.453c4.109,0,7.453,3.343,7.453,7.453
			S184.041,180.798,179.932,180.798z M179.932,168.893c-2.455,0-4.452,1.998-4.452,4.453s1.997,4.453,4.452,4.453
			c2.455,0,4.453-1.998,4.453-4.453S182.387,168.893,179.932,168.893z"/>
		<path class="st12" d="M237.841,173.345c0,3.288-2.665,5.953-5.953,5.953c-3.288,0-5.953-2.665-5.953-5.953
			c0-3.288,2.665-5.953,5.953-5.953C235.176,167.393,237.841,170.058,237.841,173.345z"/>
		<path class="st3" d="M231.888,180.798c-4.109,0-7.452-3.343-7.452-7.453s3.343-7.453,7.452-7.453c4.109,0,7.453,3.343,7.453,7.453
			S235.997,180.798,231.888,180.798z M231.888,168.893c-2.455,0-4.452,1.998-4.452,4.453s1.997,4.453,4.452,4.453
			c2.455,0,4.453-1.998,4.453-4.453S234.343,168.893,231.888,168.893z"/>
		<path class="st7" d="M232.299,170.456c0,14.574-14.036,36.944-26.389,36.944c-11.791,0-26.389-22.37-26.389-36.944
			c0-14.574,11.815-26.389,26.389-26.389C220.484,144.067,232.299,155.882,232.299,170.456z"/>
		<path class="st3" d="M205.91,208.9c-12.93,0-27.889-23.265-27.889-38.444c0-15.378,12.511-27.889,27.889-27.889
			c15.378,0,27.889,12.511,27.889,27.889C233.799,185.985,219.108,208.9,205.91,208.9z M205.91,145.567
			c-13.724,0-24.889,11.165-24.889,24.889c0,13.468,13.904,35.444,24.889,35.444c11.299,0,24.889-21.77,24.889-35.444
			C230.799,156.732,219.634,145.567,205.91,145.567z"/>
		<path class="st3" d="M199.169,170.158c0,1.423-1.153,2.576-2.576,2.576s-2.576-1.153-2.576-2.576s1.153-2.576,2.576-2.576
			S199.169,168.735,199.169,170.158z"/>
		<path class="st3" d="M217.802,170.158c0,1.423-1.153,2.576-2.576,2.576c-1.423,0-2.576-1.153-2.576-2.576s1.153-2.576,2.576-2.576
			C216.649,167.582,217.802,168.735,217.802,170.158z"/>
		<path class="st13" d="M195.882,177.815c0,1.832-1.986,3.317-4.437,3.317c-2.45,0-4.437-1.485-4.437-3.317
			c0-1.832,1.986-3.317,4.437-3.317C193.896,174.498,195.882,175.983,195.882,177.815z"/>
		<path class="st13" d="M224.811,177.815c0,1.832-1.986,3.317-4.437,3.317c-2.45,0-4.437-1.485-4.437-3.317
			c0-1.832,1.987-3.317,4.437-3.317C222.825,174.498,224.811,175.983,224.811,177.815z"/>
		<path class="st4" d="M206.214,138.243c-15.085,0-27.313,11.691-27.313,26.114c0,1.526,0.276,2.663,0.789,4.085
			c0.242,0.67,4.153-1.469,4.486-1.704c1.665-1.173,3.026-2.762,4.043-4.519c0.421-0.73,0.771-1.474,1.054-2.217
			c0.9-2.372,3.346-8.973,5.83-8.455c3.331,0.694,7.106,1.087,11.111,1.087c4.005,0,7.78-0.392,11.111-1.087
			c2.484-0.518,4.93,6.083,5.83,8.455c0.282,0.744,0.633,1.487,1.054,2.218c1.68,2.906,4.518,5.673,7.971,6.177
			c0.009-0.167,0.219-0.224,0.376-0.281c1.13-0.411,0.972-2.853,0.972-3.759C233.528,149.934,221.299,138.243,206.214,138.243z"/>
		<path class="st3" d="M179.898,170.054c-0.194,0-0.373-0.022-0.532-0.072c-0.512-0.162-0.907-0.537-1.086-1.031
			c-0.526-1.458-0.878-2.798-0.878-4.594c0-15.226,12.925-27.614,28.812-27.614s28.813,12.387,28.813,27.613l0.003,0.284
			c0.02,1.407,0.059,3.991-1.788,4.814c-0.035,0.036-0.072,0.069-0.111,0.102c-0.327,0.268-0.75,0.384-1.168,0.324
			c-3.459-0.504-6.844-3.088-9.053-6.911c-0.453-0.786-0.842-1.605-1.157-2.436l-0.058-0.151c-2.509-6.619-3.774-7.311-4.102-7.365
			c-3.523,0.74-7.363,1.116-11.379,1.116c-4.015,0-7.855-0.376-11.416-1.119c-0.29,0.057-1.556,0.748-4.064,7.368l-0.058,0.151
			c-0.315,0.831-0.704,1.65-1.156,2.435c-1.18,2.036-2.727,3.763-4.48,4.996C185.006,167.988,181.754,170.054,179.898,170.054z
			 M232.424,168.163l0.542,1.398c0.03-0.012,0.062-0.027,0.097-0.047L232.424,168.163z M206.214,139.743
			c-14.233,0-25.812,11.041-25.812,24.614c0,0.93,0.118,1.679,0.332,2.447c0.906-0.377,2.19-1.041,2.6-1.306
			c1.379-0.971,2.627-2.37,3.589-4.03c0.37-0.643,0.69-1.316,0.949-1.998l0.057-0.15c1.971-5.199,4.246-9.919,7.481-9.241
			c3.36,0.7,6.995,1.055,10.805,1.055c3.811,0,7.445-0.355,10.806-1.055c3.222-0.678,5.511,4.042,7.482,9.241l0.057,0.15
			c0.259,0.682,0.579,1.355,0.951,2.001c1.619,2.801,3.938,4.751,6.3,5.327c0.018-0.008,0.035-0.016,0.054-0.023
			c0.128-0.307,0.185-1.008,0.168-2.089l-0.003-0.329C232.027,150.784,220.447,139.743,206.214,139.743z"/>
		
			<rect x="194.973" y="207.117" transform="matrix(0.7986 -0.6019 0.6019 0.7986 -89.9051 162.826)" class="st4" width="6.746" height="17.269"/>
		<path class="st3" d="M200.85,226.177c-0.455,0-0.904-0.206-1.199-0.597l-10.393-13.791c-0.498-0.662-0.366-1.602,0.295-2.101
			l5.387-4.061c0.318-0.239,0.714-0.344,1.112-0.288c0.393,0.055,0.749,0.265,0.989,0.583l10.394,13.791
			c0.239,0.318,0.343,0.718,0.287,1.111c-0.056,0.394-0.265,0.75-0.583,0.989l-5.388,4.06
			C201.481,226.079,201.164,226.177,200.85,226.177z M192.557,211.181l8.587,11.395l2.992-2.254l-8.588-11.395L192.557,211.181z"/>
		
			<rect x="210.71" y="207.117" transform="matrix(-0.7986 -0.6019 0.6019 -0.7986 255.1975 516.8985)" class="st4" width="6.746" height="17.269"/>
		<path class="st3" d="M211.579,226.177c-0.314,0-0.632-0.098-0.901-0.302l-5.388-4.06c-0.318-0.239-0.527-0.595-0.583-0.989
			c-0.056-0.394,0.048-0.794,0.287-1.111l10.394-13.791c0.24-0.318,0.596-0.527,0.989-0.583c0.396-0.057,0.794,0.048,1.112,0.288
			l5.387,4.061c0.661,0.498,0.793,1.439,0.295,2.101l-10.393,13.791C212.483,225.971,212.034,226.177,211.579,226.177z
			 M208.293,220.322l2.992,2.254l8.587-11.395l-2.991-2.255L208.293,220.322z"/>
		<path class="st3" d="M227.485,241.186c-0.828,0-1.5-0.671-1.5-1.5v-10.835c0-0.829,0.672-1.5,1.5-1.5c0.828,0,1.5,0.671,1.5,1.5
			v10.835C228.985,240.515,228.314,241.186,227.485,241.186z"/>
		<path class="st3" d="M205.909,193.361c-4.033,0-6.941-1.814-8.646-5.393c-0.356-0.748-0.038-1.643,0.71-1.999
			c0.748-0.357,1.643-0.038,1.999,0.709c1.196,2.513,3.083,3.684,5.938,3.684c3.339,0,5.351-2.132,5.888-3.565
			c0.29-0.776,1.151-1.169,1.931-0.878c0.775,0.291,1.169,1.155,0.878,1.931C213.611,190.503,210.465,193.361,205.909,193.361z"/>
		<path class="st15" d="M235.173,142.562c0,0-12.756,13.392-28.491,13.392c-15.735,0-21.401-5.996-21.401-13.392
			c0-7.396,5.666-13.392,21.401-13.392C222.416,129.169,235.173,142.562,235.173,142.562z"/>
		<path class="st3" d="M206.681,157.454c-19.926,0-22.901-9.331-22.901-14.893c0-5.561,2.976-14.892,22.901-14.892
			c16.192,0,29.039,13.292,29.578,13.857c0.552,0.579,0.552,1.49,0,2.069C235.72,144.162,222.873,157.454,206.681,157.454z
			 M206.681,130.669c-9.079,0-19.901,2.063-19.901,11.892c0,9.829,10.822,11.893,19.901,11.893c12.363,0,23.007-8.825,26.332-11.893
			C229.688,139.494,219.044,130.669,206.681,130.669z"/>
		<path class="st3" d="M156.39,241.186c-0.828,0-1.5-0.671-1.5-1.5v-10.835c0-0.829,0.672-1.5,1.5-1.5c0.828,0,1.5,0.671,1.5,1.5
			v10.835C157.89,240.515,157.218,241.186,156.39,241.186z"/>
		<rect x="99.307" y="165.621" class="st4" width="56.636" height="64.825"/>
		<path class="st3" d="M155.943,231.945H99.307c-0.828,0-1.5-0.671-1.5-1.5v-64.825c0-0.829,0.672-1.5,1.5-1.5h56.637
			c0.828,0,1.5,0.671,1.5,1.5v64.825C157.443,231.274,156.771,231.945,155.943,231.945z M100.807,228.945h53.637v-61.825h-53.637
			V228.945z"/>
		<path class="st7" d="M161.524,239.686v-6.861c0-8.355-6.773-15.128-15.128-15.128h-9.995v-6.496
			c-2.764,1.917-5.625,3.047-8.401,3.047c-2.663,0-5.473-1.142-8.226-3.082h-0.17v6.53h-10.001c-8.355,0-15.128,6.773-15.128,15.128
			v6.861H161.524z"/>
		<path class="st3" d="M161.524,241.186H94.476c-0.828,0-1.5-0.671-1.5-1.5v-6.862c0-9.168,7.459-16.628,16.628-16.628h8.501v-5.03
			c0-0.829,0.672-1.5,1.5-1.5h0.17c0.31,0,0.611,0.096,0.863,0.273c2.646,1.863,5.123,2.808,7.362,2.808
			c2.346,0,4.885-0.936,7.546-2.78c0.459-0.319,1.057-0.355,1.55-0.097c0.495,0.259,0.805,0.771,0.805,1.329v4.996h8.495
			c9.169,0,16.629,7.46,16.629,16.628v6.862C163.024,240.515,162.352,241.186,161.524,241.186z M95.976,238.186h64.049v-5.362
			c0-7.515-6.114-13.628-13.629-13.628H136.4c-0.828,0-1.5-0.671-1.5-1.5v-3.824c-2.357,1.246-4.67,1.876-6.9,1.876
			c-2.201,0-4.512-0.663-6.896-1.977v3.925c0,0.829-0.672,1.5-1.5,1.5h-10.001c-7.515,0-13.628,6.113-13.628,13.628V238.186z"/>
		<path class="st8" d="M161.524,239.686v-6.866c0-8.355-6.773-15.129-15.128-15.129h-2.391l0.062,0.045l-10.396,13.788l-5.365-4.042
			l-5.365,4.042l-10.396-13.788l0.062-0.045h-3.002c-8.356,0-15.128,6.773-15.128,15.129v6.866H161.524z"/>
		<path class="st3" d="M161.524,241.186H94.476c-0.828,0-1.5-0.671-1.5-1.5v-6.866c0-9.169,7.459-16.629,16.628-16.629h3.003
			c0.646,0,1.217,0.412,1.422,1.023l9.207,12.211l4.168-3.14c0.533-0.402,1.272-0.403,1.805,0.001l4.167,3.139l9.289-12.318
			c0.233-0.542,0.742-0.916,1.341-0.916h2.392c9.169,0,16.628,7.46,16.628,16.629v6.866
			C163.024,240.515,162.352,241.186,161.524,241.186z M95.976,238.186h64.049v-5.366c0-7.515-6.113-13.629-13.628-13.629h-1.547
			l-9.982,13.237c-0.498,0.662-1.438,0.794-2.1,0.294l-4.462-3.362l-4.463,3.362c-0.663,0.498-1.603,0.365-2.1-0.295l-9.982-13.237
			h-2.158c-7.515,0-13.628,6.114-13.628,13.629V238.186z"/>
		<path class="st12" d="M107.975,180.195c0,3.288-2.665,5.953-5.953,5.953c-3.288,0-5.953-2.665-5.953-5.953
			s2.665-5.953,5.953-5.953C105.31,174.242,107.975,176.907,107.975,180.195z"/>
		<path class="st3" d="M102.022,187.647c-4.109,0-7.452-3.343-7.452-7.453c0-4.109,3.343-7.453,7.452-7.453
			c4.109,0,7.453,3.343,7.453,7.453C109.476,184.304,106.132,187.647,102.022,187.647z M102.022,175.742
			c-2.455,0-4.452,1.998-4.452,4.453c0,2.455,1.997,4.453,4.452,4.453c2.455,0,4.453-1.998,4.453-4.453
			C106.476,177.739,104.477,175.742,102.022,175.742z"/>
		
			<rect x="117.064" y="213.966" transform="matrix(0.7986 -0.6018 0.6018 0.7986 -109.7167 117.3135)" class="st4" width="6.746" height="17.269"/>
		<path class="st3" d="M122.94,233.026c-0.455,0-0.904-0.206-1.199-0.597l-10.393-13.79c-0.498-0.662-0.366-1.602,0.295-2.101
			l5.387-4.06c0.317-0.24,0.713-0.343,1.112-0.288c0.394,0.055,0.749,0.265,0.989,0.583l10.394,13.79
			c0.239,0.318,0.343,0.718,0.287,1.111c-0.056,0.394-0.265,0.75-0.583,0.989l-5.388,4.06
			C123.572,232.928,123.255,233.026,122.94,233.026z M114.647,218.03l8.587,11.395l2.992-2.254l-8.588-11.395L114.647,218.03z"/>
		
			<rect x="132.801" y="213.966" transform="matrix(-0.7986 -0.6019 0.6019 -0.7986 110.9479 482.3271)" class="st4" width="6.746" height="17.269"/>
		<path class="st3" d="M133.67,233.026c-0.314,0-0.632-0.098-0.901-0.302l-5.388-4.06c-0.318-0.239-0.527-0.595-0.583-0.989
			c-0.056-0.393,0.048-0.793,0.287-1.111l10.394-13.79c0.498-0.662,1.44-0.795,2.101-0.295l5.388,4.06
			c0.318,0.239,0.527,0.595,0.583,0.989c0.056,0.393-0.048,0.793-0.287,1.111l-10.394,13.79
			C134.574,232.82,134.125,233.026,133.67,233.026z M130.384,227.171l2.992,2.254l8.588-11.395l-2.992-2.254L130.384,227.171z"/>
		<path class="st12" d="M159.917,180.064c0,3.288-2.665,5.953-5.953,5.953c-3.288,0-5.953-2.665-5.953-5.953
			s2.665-5.953,5.953-5.953C157.251,174.111,159.917,176.776,159.917,180.064z"/>
		<path class="st3" d="M153.964,187.517c-4.109,0-7.452-3.343-7.452-7.453c0-4.109,3.343-7.453,7.452-7.453
			c4.109,0,7.453,3.343,7.453,7.453C161.417,184.173,158.073,187.517,153.964,187.517z M153.964,175.611
			c-2.455,0-4.452,1.998-4.452,4.453c0,2.455,1.997,4.453,4.452,4.453c2.455,0,4.453-1.998,4.453-4.453
			C158.417,177.609,156.419,175.611,153.964,175.611z"/>
		<path class="st7" d="M154.389,177.305c0,14.574-14.036,36.944-26.389,36.944c-11.791,0-26.389-22.37-26.389-36.944
			c0-14.574,11.815-26.389,26.389-26.389C142.575,150.916,154.389,162.731,154.389,177.305z"/>
		<path class="st3" d="M128.001,215.749c-12.93,0-27.889-23.265-27.889-38.444c0-15.378,12.511-27.889,27.889-27.889
			c15.378,0,27.889,12.511,27.889,27.889C155.89,192.834,141.199,215.749,128.001,215.749z M128.001,152.416
			c-13.724,0-24.889,11.165-24.889,24.889c0,13.468,13.904,35.444,24.889,35.444c11.299,0,24.889-21.77,24.889-35.444
			C152.89,163.581,141.725,152.416,128.001,152.416z"/>
		<path class="st3" d="M121.26,177.007c0,1.423-1.153,2.576-2.576,2.576s-2.576-1.153-2.576-2.576s1.153-2.576,2.576-2.576
			S121.26,175.585,121.26,177.007z"/>
		<path class="st3" d="M139.893,177.007c0,1.423-1.153,2.576-2.576,2.576c-1.423,0-2.576-1.153-2.576-2.576s1.153-2.576,2.576-2.576
			C138.74,174.431,139.893,175.585,139.893,177.007z"/>
		<path class="st13" d="M117.973,184.665c0,1.832-1.986,3.317-4.437,3.317c-2.45,0-4.437-1.485-4.437-3.317
			c0-1.832,1.987-3.317,4.437-3.317C115.987,181.348,117.973,182.833,117.973,184.665z"/>
		<path class="st13" d="M146.902,184.665c0,1.832-1.986,3.317-4.437,3.317c-2.45,0-4.437-1.485-4.437-3.317
			c0-1.832,1.986-3.317,4.437-3.317C144.916,181.348,146.902,182.833,146.902,184.665z"/>
		<path class="st3" d="M128,200.21c-4.033,0-6.942-1.815-8.646-5.394c-0.356-0.748-0.038-1.643,0.71-2
			c0.748-0.357,1.644-0.038,1.999,0.71c1.196,2.513,3.083,3.684,5.938,3.684c3.339,0,5.351-2.132,5.888-3.565
			c0.291-0.776,1.152-1.168,1.931-0.878c0.775,0.291,1.169,1.155,0.878,1.931C135.702,197.352,132.556,200.21,128,200.21z"/>
		<path class="st4" d="M158.033,167.633c0,2.704-0.352,5.325-1.017,7.819c-6.759-3.258-13.188-7.259-19.145-11.781
			c-1.747-1.324-3.467-2.704-5.11-4.165c-2.017-1.769-3.924-3.676-5.644-5.742c-3.742-4.506-6.49-9.682-8.814-15.073
			c2.934-0.951,6.067-1.462,9.32-1.462c8.699,0,16.546,3.654,22.09,9.512C154.873,152.186,158.033,159.539,158.033,167.633z"/>
		<path class="st3" d="M157.017,176.953c-0.223,0-0.445-0.05-0.651-0.149c-6.683-3.221-13.21-7.238-19.401-11.938
			c-1.976-1.498-3.677-2.885-5.2-4.239c-2.173-1.907-4.127-3.896-5.799-5.903c-3.38-4.07-6.252-8.975-9.038-15.439
			c-0.168-0.388-0.164-0.828,0.011-1.212c0.174-0.385,0.502-0.678,0.904-0.808c3.143-1.019,6.434-1.535,9.781-1.535
			c8.857,0,17.088,3.544,23.18,9.98c5.63,5.942,8.73,13.728,8.73,21.924c0,2.789-0.359,5.549-1.067,8.206
			c-0.115,0.432-0.417,0.79-0.823,0.977C157.443,176.907,157.23,176.953,157.017,176.953z M120.367,139.65
			c2.454,5.432,4.986,9.642,7.904,13.155c1.571,1.887,3.415,3.762,5.479,5.573c1.472,1.308,3.113,2.646,5.027,4.098
			c5.511,4.183,11.291,7.809,17.206,10.794c0.365-1.844,0.55-3.733,0.55-5.637c0-7.425-2.809-14.478-7.909-19.861
			c-5.519-5.832-12.977-9.044-21.001-9.044C125.154,138.729,122.721,139.039,120.367,139.65z"/>
		<path class="st4" d="M149.713,146.741c-5.231,4.77-10.924,8.99-16.952,12.765c-10.688,6.699-22.409,11.985-34.405,16.386
			c-0.742-2.627-1.138-5.396-1.138-8.259c0-13.54,8.853-25.014,21.085-28.943c2.934-0.951,6.067-1.462,9.32-1.462
			C136.322,137.229,144.169,140.883,149.713,146.741z"/>
		<path class="st3" d="M98.356,177.392c-0.234,0-0.469-0.055-0.682-0.164c-0.372-0.19-0.648-0.526-0.762-0.928
			c-0.793-2.804-1.194-5.72-1.194-8.667c0-13.915,8.892-26.12,22.126-30.371c3.14-1.017,6.431-1.533,9.778-1.533
			c8.857,0,17.088,3.544,23.18,9.98c0.276,0.292,0.424,0.684,0.409,1.086c-0.015,0.402-0.19,0.782-0.488,1.053
			c-5.058,4.613-10.834,8.962-17.167,12.928c-9.831,6.162-21.177,11.567-34.684,16.523
			C98.706,177.362,98.531,177.392,98.356,177.392z M127.623,138.729c-3.033,0-6.014,0.467-8.857,1.388
			c-11.992,3.852-20.047,14.91-20.047,27.516c0,2.121,0.229,4.224,0.684,6.271c12.623-4.724,23.289-9.857,32.562-15.67
			c5.699-3.568,10.93-7.451,15.571-11.555C142.144,141.541,135.131,138.729,127.623,138.729z"/>
		<path class="st7" d="M64.253,62.678H36.747c-2.069,0-3.747-1.677-3.747-3.747V37.425c0-2.069,1.677-3.747,3.747-3.747h27.507
			c2.069,0,3.747,1.677,3.747,3.747v21.507C68,61.001,66.323,62.678,64.253,62.678z"/>
		<path class="st3" d="M64.253,64.178H36.746c-2.893,0-5.246-2.354-5.246-5.247V37.425c0-2.893,2.353-5.247,5.246-5.247h27.507
			c2.894,0,5.247,2.354,5.247,5.247v21.507C69.5,61.825,67.146,64.178,64.253,64.178z M36.746,35.178
			c-1.238,0-2.246,1.008-2.246,2.247v21.507c0,1.239,1.008,2.247,2.246,2.247h27.507c1.239,0,2.247-1.008,2.247-2.247V37.425
			c0-1.239-1.008-2.247-2.247-2.247H36.746z"/>
		<path class="st3" d="M68,77.178H33c-0.828,0-1.5-0.671-1.5-1.5s0.672-1.5,1.5-1.5h35c0.828,0,1.5,0.671,1.5,1.5
			S68.828,77.178,68,77.178z"/>
		<path class="st3" d="M68,93.178H33c-0.828,0-1.5-0.671-1.5-1.5s0.672-1.5,1.5-1.5h35c0.828,0,1.5,0.671,1.5,1.5
			S68.828,93.178,68,93.178z"/>
		<path class="st3" d="M68,109.178H33c-0.828,0-1.5-0.671-1.5-1.5s0.672-1.5,1.5-1.5h35c0.828,0,1.5,0.671,1.5,1.5
			S68.828,109.178,68,109.178z"/>
		<path class="st7" d="M219.253,62.678h-27.507c-2.069,0-3.747-1.677-3.747-3.747V37.425c0-2.069,1.677-3.747,3.747-3.747h27.507
			c2.069,0,3.747,1.677,3.747,3.747v21.507C223,61.001,221.323,62.678,219.253,62.678z"/>
		<path class="st3" d="M219.253,64.178h-27.506c-2.894,0-5.247-2.354-5.247-5.247V37.425c0-2.893,2.354-5.247,5.247-5.247h27.506
			c2.894,0,5.247,2.354,5.247,5.247v21.507C224.5,61.825,222.146,64.178,219.253,64.178z M191.747,35.178
			c-1.239,0-2.247,1.008-2.247,2.247v21.507c0,1.239,1.008,2.247,2.247,2.247h27.506c1.239,0,2.247-1.008,2.247-2.247V37.425
			c0-1.239-1.008-2.247-2.247-2.247H191.747z"/>
		<path class="st3" d="M223,77.178h-35c-0.828,0-1.5-0.671-1.5-1.5s0.672-1.5,1.5-1.5h35c0.828,0,1.5,0.671,1.5,1.5
			S223.828,77.178,223,77.178z"/>
		<path class="st3" d="M223,93.178h-35c-0.828,0-1.5-0.671-1.5-1.5s0.672-1.5,1.5-1.5h35c0.828,0,1.5,0.671,1.5,1.5
			S223.828,93.178,223,93.178z"/>
		<path class="st3" d="M223,109.178h-35c-0.828,0-1.5-0.671-1.5-1.5s0.672-1.5,1.5-1.5h35c0.828,0,1.5,0.671,1.5,1.5
			S223.828,109.178,223,109.178z"/>
		<path class="st17" d="M222.39,17.818h-15c8.61,0,15.61,7,15.61,15.6v0.34c0.93,0.95,1.5,2.24,1.5,3.67v21.5
			c0,1.43-0.57,2.72-1.5,3.67v11.58c0.83,0,1.5,0.67,1.5,1.5s-0.67,1.5-1.5,1.5v13c0.83,0,1.5,0.67,1.5,1.5s-0.67,1.5-1.5,1.5v13
			c0.83,0,1.5,0.67,1.5,1.5s-0.67,1.5-1.5,1.5v22.72c7.77,3.94,12.92,9.27,13.26,9.63c0.55,0.58,0.55,1.49,0,2.07
			c-0.22,0.23-2.49,2.58-6.2,5.28c3.13,4.42,4.97,9.75,4.97,15.48v0.28c0.01,0.53,0.02,1.22-0.07,1.93c0.9,0.4,1.69,0.98,2.36,1.69
			c0.44-1.44,0.68-2.97,0.68-4.55V33.418C238,24.818,231,17.818,222.39,17.818z"/>
	</g>
</g>
</svg>
