<?xml version="1.0" encoding="UTF-8"?>
<!DOCTYPE svg PUBLIC "-//W3C//DTD SVG 1.1//EN" "http://www.w3.org/Graphics/SVG/1.1/DTD/svg11.dtd">
<!-- Creator: CorelDRAW -->
<svg xmlns="http://www.w3.org/2000/svg" xml:space="preserve" width="2048px" height="2048px" style="shape-rendering:geometricPrecision; text-rendering:geometricPrecision; image-rendering:optimizeQuality; fill-rule:evenodd; clip-rule:evenodd"
viewBox="0 0 2048 2048"
 xmlns:xlink="http://www.w3.org/1999/xlink">
 <defs>
  <style type="text/css">
   <![CDATA[
    .fil2 {fill:none}
    .fil1 {fill:#424242}
    .fil0 {fill:#424242;fill-rule:nonzero}
   ]]>
  </style>
 </defs>
 <g id="Layer_x0020_1">
  <metadata id="CorelCorpID_0Corel-Layer"/>
  <path class="fil0" d="M1179.62 1318.06l0 61.5638 0 32.0008 -32.0008 0 -247.233 0 -32.0008 0 0 -32.0008 0 -61.5638 -548.383 0 -32.0008 0 0 -32.0008 0 -864.001 0 -32.0008 32.0008 0 96.0001 0 19.9984 0 0 796.002 857.035 0c-0.0767717,44.6634 -0.239764,89.3859 -0.429922,132l-112.986 0zm297.336 -132l135.049 0 0 -796.002 20.0008 0 95.9977 0 32.0008 0 0 32.0008 0 864.001 0 32.0008 -32.0008 0 -240.239 0 -10.8083 -132z"/>
  <path class="fil0" d="M736.782 348.102c-90.4371,-1.74095 -180.169,12.1417 -268.98,46.1433l0 765.377 543.998 0 0 -763.554c-92.5312,-28.7256 -184.308,-46.2201 -275.019,-47.967z"/>
  <path class="fil0" d="M1311.22 348.102c90.4371,-1.74095 180.169,12.1417 268.98,46.1433l0 765.377 -105.411 0 -2.16496 -26.4461 -0.0614174 0.00472441c-0.96378,-23.6906 -11.0622,-45.0461 -26.8288,-60.5434 -16.2508,-15.9768 -38.4437,-25.8662 -62.8229,-25.8662 -23.9858,0 -45.7713,9.34489 -61.9453,24.6969 -16.1351,15.3142 -26.5288,36.6225 -27.763,60.5705l-0.121654 1.58386c0,8.63741 -0.00472441,17.3091 -0.011811,25.9996l-256.868 0 0 -763.554c92.5312,-28.7256 184.308,-46.2201 275.019,-47.967zm-204.26 184.735c-16.1469,5.85355 -24.4914,23.6882 -18.6378,39.8351 5.85237,16.1469 23.6882,24.4914 39.8351,18.6378 43.0229,-15.6957 90.8587,-26.4721 147.802,-27.9307 57.8752,-1.48465 125.591,6.60591 207.787,28.7835 16.6169,4.43977 33.6898,-5.43189 38.1296,-22.0488 4.43977,-16.6181 -5.43189,-33.6898 -22.05,-38.1296 -87.9757,-23.7378 -161.549,-32.3681 -225.329,-30.7347 -64.7091,1.65945 -118.904,13.8437 -167.537,31.5874zm0 374c-16.1469,5.85237 -24.4914,23.6882 -18.6378,39.8351 5.85237,16.1469 23.6882,24.4902 39.8351,18.6378 43.0229,-15.6957 90.8587,-26.4721 147.802,-27.9319 57.8752,-1.48347 125.591,6.60591 207.787,28.7847 16.6169,4.43977 33.6898,-5.43189 38.1296,-22.05 4.43977,-16.6169 -5.43189,-33.6898 -22.05,-38.1296 -87.9757,-23.7378 -161.549,-32.3681 -225.329,-30.7335 -64.7091,1.65827 -118.904,13.8437 -167.537,31.5874zm0 -124.742c-16.1469,5.85237 -24.4914,23.6882 -18.6378,39.8351 5.85237,16.1469 23.6882,24.4902 39.8351,18.6378 43.0229,-15.6957 90.8587,-26.4721 147.802,-27.9319 57.8752,-1.48347 125.591,6.60591 207.787,28.7847 16.6169,4.43977 33.6898,-5.43189 38.1296,-22.05 4.43977,-16.6169 -5.43189,-33.6898 -22.05,-38.1284 -87.9757,-23.739 -161.549,-32.3693 -225.329,-30.7347 -64.7091,1.65827 -118.904,13.8437 -167.537,31.5874zm0 -124.514c-16.1469,5.85237 -24.4914,23.6882 -18.6378,39.8351 5.85237,16.1469 23.6882,24.4914 39.8351,18.6378 43.0229,-15.6957 90.8587,-26.4721 147.802,-27.9307 57.8752,-1.48465 125.591,6.60473 207.787,28.7835 16.6169,4.43977 33.6898,-5.43189 38.1296,-22.0488 4.43977,-16.6181 -5.43189,-33.6898 -22.05,-38.1296 -87.9757,-23.7378 -161.549,-32.3693 -225.329,-30.7347 -64.7091,1.65945 -118.904,13.8437 -167.537,31.5874z"/>
  <path class="fil1" d="M1342.67 1676.47c-9.43111,-5.85119 -18.6508,-12.0425 -27.6532,-18.528 -18.691,-13.4646 -36.5457,-28.1067 -53.6138,-43.5709l-21.9378 -19.8791 0.461811 -0.52441c-25.3784,-24.9036 -49.4611,-51.9071 -70.8934,-79.8083l-17.6043 -22.9193 22.2473 -18.4477c5.89843,-4.89095 12.3307,-9.10867 19.2662,-12.3827 11.0835,-5.23111 23.0292,-7.75394 35.2772,-7.75394 12.4205,0 24.6437,2.66103 36.1831,7.17048 12.5327,4.89685 24.0425,11.6669 34.5307,20.0599l1.01457 0.811418 23.8807 18.4394 0.00944883 -2.21339c0.125197,-26.7969 0.26811,-53.5937 0.4063,-80.3906 0.131102,-25.2544 0.112205,-50.5111 0.0519685,-75.7654 -0.0956694,-40.18 -0.329528,-80.3623 -0.266929,-120.542 0.046063,-29.2087 -0.0720473,-58.9867 1.46457,-88.1481 0.754725,-14.3232 7.36064,-27.4819 17.6977,-37.2945 10.7339,-10.187 24.952,-15.6378 39.717,-15.6378 15.0709,0 29.4921,5.87363 40.2426,16.4398 10.885,10.6996 17.341,25.1835 17.341,40.5142l0 0.724016 17.4945 213.657 0.890552 0.205512c3.17481,0.732284 6.38386,1.36181 9.5693,2.04685l2.51811 0.540945 0.0283465 0 3.02835 0.630709c25.7445,5.36693 49.9678,11.2689 74.8134,20.1756 38.0315,13.6323 74.5087,32.1874 109.305,52.6028l12.2185 7.16812 2.22756 13.9878c11.4307,71.7745 7.65473,165.552 -40.6406,224.248 -28.2673,34.3548 -67.552,51.8386 -111.315,55.0595 -51.6922,3.80315 -106.884,-11.7721 -152.33,-35.8536l-26.1295 -13.8461 0.499607 -0.975591z"/>
 </g>
 <rect class="fil2" width="2048" height="2048"/>
</svg>
