<?xml version="1.0" encoding="UTF-8"?>
<!DOCTYPE svg PUBLIC "-//W3C//DTD SVG 1.1//EN" "http://www.w3.org/Graphics/SVG/1.1/DTD/svg11.dtd">
<!-- Creator: CorelDRAW -->
<svg xmlns="http://www.w3.org/2000/svg" xml:space="preserve" width="6.82666in" height="6.82666in" style="shape-rendering:geometricPrecision; text-rendering:geometricPrecision; image-rendering:optimizeQuality; fill-rule:evenodd; clip-rule:evenodd"
viewBox="0 0 6.82666 6.82666"
 xmlns:xlink="http://www.w3.org/1999/xlink">
 <defs>
  <style type="text/css">
   <![CDATA[
    .fil14 {fill:none}
    .fil13 {fill:#202020}
    .fil11 {fill:#2D2D2D}
    .fil3 {fill:#2F2F2F}
    .fil5 {fill:#6A6A6A}
    .fil0 {fill:#838383}
    .fil9 {fill:#8C8D8D}
    .fil12 {fill:#A1A1A1}
    .fil6 {fill:#B3B4B4}
    .fil8 {fill:#B4B4B5}
    .fil1 {fill:#BCBCBC}
    .fil10 {fill:#C9C9C9}
    .fil2 {fill:#D1D1D1}
    .fil4 {fill:#E1E1E2}
    .fil7 {fill:#2F2F2F;fill-rule:nonzero}
   ]]>
  </style>
 </defs>
 <g id="Layer_x0020_1">
  <metadata id="CorelCorpID_0Corel-Layer"/>
  <g id="_291570728">
   <path id="_291572192" class="fil0" d="M3.2873 1.92699l0.367972 0c0.18637,0 0.338843,0.0730669 0.338843,0.259417l0 1.15589 -1.04565 0 0 -1.15589c0,-0.18637 0.152469,-0.259417 0.338839,-0.259417z"/>
   <rect id="_291572408" class="fil1" x="3.34027" y="1.70467" width="0.262333" height="0.334653"/>
   <g>
    <path id="_291572024" class="fil1" d="M3.75328 1.61187c0,0 0.138618,-0.172717 0.0713701,-0.210268 0,0 -0.150768,0.00409449 -0.0713701,0.210268z"/>
    <path id="_291571424" class="fil1" d="M3.1893 1.61187c0,0 -0.138618,-0.172717 -0.071374,-0.210268 0,0 0.150768,0.00409449 0.071374,0.210268z"/>
   </g>
   <ellipse id="_291571664" class="fil2" cx="3.47129" cy="1.43594" rx="0.317668" ry="0.408117"/>
   <path id="_291571928" class="fil3" d="M3.17704 1.47163c0,0 0.0800039,-0.14824 0.0918268,-0.195531 0,0 0.260098,0.283744 0.472906,0.0236457l0.0118228 0.200984c0,0 0.22463,-0.44926 -0.283744,-0.472906 0,0 -0.484728,0.0118228 -0.292811,0.443807z"/>
   <polygon id="_291571784" class="fil4" points="3.48616,2.12747 3.60665,2.88303 3.47129,3.08498 3.33593,2.88303 3.45641,2.12747 3.47129,2.12666 "/>
   <path id="_291571472" class="fil5" d="M3.73323 1.93604c-0.0322283,-0.0051378 -0.068378,-0.00842913 -0.106067,-0.00905512l-0.0245748 0 -0.131303 0.112335 -0.131307 -0.112335 -0.0245748 0c-0.037689,0.000625984 -0.0738386,0.00391732 -0.106067,0.00905512l0.147358 0.221035 0.114591 -0.117579 0.114591 0.117579 0.147354 -0.221035z"/>
   <polygon id="_291571736" class="fil6" points="3.52115,2.09066 3.47129,2.0395 3.42143,2.09066 3.47129,2.14301 "/>
   <g>
    <path id="_291570848" class="fil2" d="M4.09039 3.18289c-0.011063,0.00161024 0.112146,-0.00992126 0.112146,-0.00992126l0.0231614 0.188024c0,0 -0.0191811,0.119913 -0.115807,0.0894921 0,0 0.0179685,-0.0132874 0.0795984,-0.0924016l-0.013748 -0.0756654c0,0 -0.049,-0.0157913 -0.0347677,0.0649606 0,0 -0.0593386,-0.00323228 -0.0587756,-0.143161l0.00819291 -0.0213268z"/>
    <path id="_291570440" class="fil0" d="M3.76739 1.93869c0,0 0.0889055,-0.0140394 0.17524,0.0193465 0.0900669,0.0348346 0.177748,0.118315 0.178087,0.175945l0.0945591 1.05593 -0.15026 0.0119843 -0.113083 -0.823154 -0.106551 0.0128858 -0.0779921 -0.452941z"/>
   </g>
   <g>
    <path id="_291570632" class="fil2" d="M2.85217 3.18289c0.011063,0.00161024 -0.112146,-0.00992126 -0.112146,-0.00992126l-0.0231614 0.188024c0,0 0.0191811,0.119913 0.115807,0.0894921 0,0 -0.0179685,-0.0132874 -0.0795984,-0.0924016l0.013748 -0.0756654c0,0 0.049,-0.0157913 0.0347677,0.0649606 0,0 0.0593386,-0.00323228 0.0587756,-0.143161l-0.00819291 -0.0213268z"/>
    <path id="_291571160" class="fil0" d="M3.17517 1.93869c0,0 -0.0889055,-0.0140394 -0.17524,0.0193465 -0.0900669,0.0348346 -0.177748,0.118315 -0.178087,0.175945l-0.0945591 1.05593 0.15026 0.0119843 0.113083 -0.823154 0.106551 0.0128858 0.0779921 -0.452941z"/>
   </g>
  </g>
  <path class="fil7" d="M3.47128 5.70563l-0.749492 0c-0.00230709,4.33071e-005 -0.00465748,-0.000275591 -0.00701181,-0.000992126 -0.0184685,-0.00561024 -0.0304843,-0.0332165 -0.0268425,-0.0616496l3.54331e-005 1.1811e-005 0.255335 -1.99171c0.0024252,-0.0253307 0.0165984,-0.0447795 0.0337283,-0.0447795l0.494248 0 0.494248 0c0.0171299,0 0.0313031,0.0194488 0.0337244,0.0447795l0.255339 1.99171 3.54331e-005 -1.1811e-005c0.00364173,0.0284331 -0.00837402,0.0560394 -0.0268425,0.0616496 -0.00235433,0.000716535 -0.00470472,0.00103543 -0.00701181,0.000992126l-0.749492 0z"/>
  <g id="_291570152">
   <g>
    <rect id="_291570296" class="fil8" x="1.66488" y="4.0151" width="0.305039" height="0.336232"/>
    <path id="_291570128" class="fil9" d="M2.58018 4.67843c0,0 -0.00933858,-0.287291 -0.272547,-0.423488l2.75591e-005 -3.14961e-005c-0.0515866,-0.0267008 -0.112902,-0.0476181 -0.185831,-0.0594094 -0.0374764,-0.00597638 -0.0795079,-0.00979528 -0.123335,-0.0105276l-0.0285787 0 -0.305358 0 -0.0285748 0c-0.0438268,0.000732283 -0.0858583,0.00455118 -0.123335,0.0105276 -0.0729291,0.0117913 -0.134244,0.0327087 -0.185831,0.0594094l2.3622e-005 3.14961e-005c-0.263209,0.136197 -0.272547,0.423488 -0.272547,0.423488l0.672752 0.0110709 3.93701e-006 3.93701e-006 0.090185 0.00148425 0.090189 -0.00148425 3.93701e-006 -3.93701e-006 0.672752 -0.0110709z"/>
    <path id="_291570056" class="fil10" d="M1.81741 3.15049c0.199331,0 0.360917,0.214831 0.360917,0.47985 0,0.26502 -0.161587,0.47985 -0.360917,0.47985 -0.199327,0 -0.360913,-0.214831 -0.360913,-0.47985 0,-0.26502 0.161587,-0.47985 0.360913,-0.47985z"/>
    <path id="_291570176" class="fil11" d="M1.81741 3.15049c0.204598,0 0.370457,0.2015 0.370457,0.450059 0,0.248559 -0.165858,0.450055 -0.370457,0.450055 -0.204602,0 -0.370461,-0.201496 -0.370461,-0.450055 0,-0.248559 0.165858,-0.450059 0.370461,-0.450059z"/>
   </g>
   <polygon id="_291569960" class="fil12" points="1.56937,4.1295 1.81723,4.1295 2.0651,4.1295 2.07496,4.19052 1.81723,4.18974 1.55951,4.19052 "/>
  </g>
  <g id="_291569312">
   <g>
    <rect id="_291570224" class="fil8" x="1.46392" y="5.12295" width="0.305039" height="0.336232"/>
    <path id="_291569936" class="fil13" d="M2.37922 5.78628c0,0 -0.00933858,-0.287295 -0.272547,-0.423492l3.14961e-005 -3.14961e-005c-0.0515906,-0.0267008 -0.112906,-0.0476181 -0.185835,-0.0594094 -0.0374724,-0.00597244 -0.0795079,-0.00979528 -0.123335,-0.0105276l-0.0285787 0 -0.305358 0 -0.0285748 0c-0.0438268,0.000732283 -0.0858583,0.00455512 -0.123335,0.0105276 -0.0729291,0.0117913 -0.134244,0.0327087 -0.185831,0.0594094l2.3622e-005 3.14961e-005c-0.263209,0.136197 -0.272547,0.423492 -0.272547,0.423492l0.672752 0.0110709 3.93701e-006 3.93701e-006 0.090189 0.00148031 0.090185 -0.00148031 3.93701e-006 -3.93701e-006 0.672752 -0.0110709z"/>
    <path id="_291569984" class="fil10" d="M1.61644 4.25834c0.199331,0 0.360917,0.214835 0.360917,0.47985 0,0.26502 -0.161587,0.47985 -0.360917,0.47985 -0.199327,0 -0.360913,-0.214831 -0.360913,-0.47985 0,-0.265016 0.161587,-0.47985 0.360913,-0.47985z"/>
    <path id="_291568952" class="fil11" d="M1.61644 4.25834c0.204598,0 0.370457,0.2015 0.370457,0.450059 0,0.248559 -0.165858,0.450055 -0.370457,0.450055 -0.204602,0 -0.370461,-0.201496 -0.370461,-0.450055 0,-0.248559 0.165858,-0.450059 0.370461,-0.450059z"/>
   </g>
   <polygon id="_291569552" class="fil12" points="1.36841,5.23735 1.61628,5.23735 1.86414,5.23735 1.874,5.29837 1.61628,5.29759 1.35855,5.29837 "/>
  </g>
  <g id="_291569624">
   <g>
    <rect id="_291568904" class="fil8" x="4.85674" y="4.0151" width="0.305039" height="0.336232"/>
    <path id="_291569096" class="fil9" d="M4.24648 4.67843c0,0 0.00933858,-0.287291 0.272547,-0.423488l-2.75591e-005 -3.14961e-005c0.0515866,-0.0267008 0.112902,-0.0476181 0.185831,-0.0594094 0.0374764,-0.00597638 0.0795079,-0.00979528 0.123335,-0.0105276l0.0285787 0 0.305358 0 0.0285748 0c0.0438268,0.000732283 0.0858583,0.00455118 0.123335,0.0105276 0.0729291,0.0117913 0.134244,0.0327087 0.185831,0.0594094l-2.3622e-005 3.14961e-005c0.263209,0.136197 0.272547,0.423488 0.272547,0.423488l-0.672752 0.0110709 -3.93701e-006 3.93701e-006 -0.090185 0.00148425 -0.090189 -0.00148425 -3.93701e-006 -3.93701e-006 -0.672752 -0.0110709z"/>
    <path id="_291569504" class="fil10" d="M5.00926 3.15049c-0.199331,0 -0.360917,0.214831 -0.360917,0.47985 0,0.26502 0.161587,0.47985 0.360917,0.47985 0.199327,0 0.360913,-0.214831 0.360913,-0.47985 0,-0.26502 -0.161587,-0.47985 -0.360913,-0.47985z"/>
    <path id="_291569048" class="fil11" d="M5.00926 3.15049c-0.204598,0 -0.370457,0.2015 -0.370457,0.450059 0,0.248559 0.165858,0.450055 0.370457,0.450055 0.204602,0 0.370461,-0.201496 0.370461,-0.450055 0,-0.248559 -0.165858,-0.450059 -0.370461,-0.450059z"/>
   </g>
   <polygon id="_291569432" class="fil12" points="5.2573,4.1295 5.00943,4.1295 4.76156,4.1295 4.7517,4.19052 5.00943,4.18974 5.26715,4.19052 "/>
  </g>
  <g id="_291568712">
   <g>
    <rect id="_291568928" class="fil8" x="5.0577" y="5.12295" width="0.305039" height="0.336232"/>
    <path id="_291569384" class="fil13" d="M4.44744 5.78628c0,0 0.00933858,-0.287295 0.272547,-0.423492l-3.14961e-005 -3.14961e-005c0.0515906,-0.0267008 0.112906,-0.0476181 0.185835,-0.0594094 0.0374724,-0.00597244 0.0795079,-0.00979528 0.123335,-0.0105276l0.0285787 0 0.305358 0 0.0285748 0c0.0438268,0.000732283 0.0858583,0.00455512 0.123335,0.0105276 0.0729291,0.0117913 0.134244,0.0327087 0.185831,0.0594094l-2.3622e-005 3.14961e-005c0.263209,0.136197 0.272547,0.423492 0.272547,0.423492l-0.672752 0.0110709 -3.93701e-006 3.93701e-006 -0.090189 0.00148031 -0.090185 -0.00148031 -3.93701e-006 -3.93701e-006 -0.672752 -0.0110709z"/>
    <path id="_291568568" class="fil10" d="M5.21022 4.25834c-0.199331,0 -0.360917,0.214835 -0.360917,0.47985 0,0.26502 0.161587,0.47985 0.360917,0.47985 0.199327,0 0.360913,-0.214831 0.360913,-0.47985 0,-0.265016 -0.161587,-0.47985 -0.360913,-0.47985z"/>
    <path id="_291568472" class="fil11" d="M5.21022 4.25834c-0.204598,0 -0.370457,0.2015 -0.370457,0.450059 0,0.248559 0.165858,0.450055 0.370457,0.450055 0.204602,0 0.370461,-0.201496 0.370461,-0.450055 0,-0.248559 -0.165858,-0.450059 -0.370461,-0.450059z"/>
   </g>
   <polygon id="_291568184" class="fil12" points="5.45826,5.23735 5.21039,5.23735 4.96252,5.23735 4.95267,5.29837 5.21039,5.29759 5.46811,5.29837 "/>
  </g>
 </g>
 <rect class="fil14" width="6.82666" height="6.82666"/>
</svg>
