<?xml version="1.0" encoding="utf-8"?>
<!-- Generator: Adobe Illustrator 22.0.0, SVG Export Plug-In . SVG Version: 6.00 Build 0)  -->
<svg version="1.1" xmlns="http://www.w3.org/2000/svg" xmlns:xlink="http://www.w3.org/1999/xlink" x="0px" y="0px"
	 viewBox="0 0 512 512" style="enable-background:new 0 0 512 512;" xml:space="preserve">
<style type="text/css">
	.st13{fill:#ffffff;}
	.st12{fill:#ffffff;}
	.st14{fill:#e0e0e0;}
	.st0{fill:#a3a3a3;}
	.st7{fill:#ffffff;}
	.st8{fill:#ebebeb;}

</style>
<g id="Layer_6">
</g>
<g id="Layer_9">
</g>
<g id="Layer_7">
	<g>
		<g>
			<g>
				<g>
					<g>
						<path class="st7" d="M352,267.5c-5.3-4.4-13.2-3.7-17.6,1.7l-25,26.8c-4.4,5.3-3.7,13.2,1.6,17.6l0,0
							c5.3,4.4,13.2,3.7,17.6-1.7l25-26.8C358.1,279.8,357.3,271.9,352,267.5L352,267.5z"/>
					</g>
					<path class="st7" d="M187.1,291.7L131.8,315l23.6,56l55.3-23.3c11.3-4.8,18.4-17.4,14.4-26.9l-9.2-21.8
						C212,289.6,198.5,286.9,187.1,291.7z"/>
					<g>
						<path class="st7" d="M259,308c0.5-8.7-6.2-16.1-14.9-16.6l-44.5-3.8c-8.7-0.5-16.1,6.2-16.6,14.9l0,0
							c-0.5,8.7,6.2,16.1,14.9,16.6l44.5,3.8C251.1,323.3,258.5,316.7,259,308L259,308z"/>
					</g>
					<g>
						<path class="st7" d="M292.2,323.7c-0.4-11.1-9.7-19.8-20.8-19.4l-57.1,0.2c-11.1,0.4-19.8,9.7-19.4,20.8l0,0
							c0.4,11.1,9.7,19.8,20.8,19.4l57.1-0.2C283.8,344.1,292.6,334.8,292.2,323.7L292.2,323.7z"/>
					</g>
					<path class="st7" d="M315.3,291.3c4.4,7,9.3,13.7,14.2,20.3l-42.5,29.5c-7.8,5.4-18.5,3.6-23.7-3.8c-5.1-7.4-3.2-18.1,4.6-23.5
						L315.3,291.3z"/>
					<path class="st8" d="M263,292.5c4.2,9.7,14.8,14.6,23.8,11.1l14.4-5.6c0.6,1.8,0.8,3.1,0.8,4.7c0,7.7-5.8,13.7-13,13.1l-39-2.9
						c-4.6-0.3-8.7-3.2-11-7.3C247.2,301.7,255.3,297.4,263,292.5z"/>
					<path class="st7" d="M294.8,282.7c2.8,7.3-0.9,15.5-8.2,18.2L247,316.1c-7.3,2.8-15.5-0.9-18.2-8.2l0,0
						c-2.8-7.3,0.9-15.5,8.2-18.2l39.6-15.1C283.9,271.8,292,275.4,294.8,282.7L294.8,282.7z"/>
				</g>
				
					<rect x="128" y="310.1" transform="matrix(0.9214 -0.3886 0.3886 0.9214 -120.6284 84.6909)" class="st8" width="42.2" height="60.9"/>
				<path class="st0" d="M121.8,407.8l34.8-14.7c10.7-4.5,15.7-16.8,11.2-27.4L142.6,306c-4.5-10.7-16.8-15.7-27.4-11.2l-34.8,14.7
					L121.8,407.8z"/>
			</g>
			<g>
				<g>
					<g>
						<path class="st12" d="M249.1,266c5,1.6,10.4-1.2,12-6.2l10-26.1c1.6-5-1.2-10.4-6.2-12l0,0c-5-1.6-10.4,1.2-12,6.2l-10,26.1
							C241.3,259.1,244.1,264.5,249.1,266L249.1,266z"/>
					</g>
					<path class="st12" d="M358.5,201.7l32.3-32.3L358,136.6l-32.3,32.3c-6.6,6.6-8,17.6-2.5,23.1l12.7,12.7
						C341.5,210.3,351.8,208.3,358.5,201.7z"/>
					<g>
						<path class="st12" d="M303.1,210.8c2.2,6.2,9,9.6,15.2,7.4l32.5-10.1c6.2-2.2,9.6-9,7.4-15.2l0,0c-2.2-6.3-9-9.6-15.2-7.4
							l-32.5,10.1C304.3,197.7,301,204.5,303.1,210.8L303.1,210.8z"/>
					</g>
					<g>
						<path class="st12" d="M275.2,209.3c3.5,7.7,12.5,11.2,20.2,7.7l40.2-16.5c7.7-3.5,11.2-12.5,7.7-20.2l0,0
							c-3.5-7.7-12.5-11.2-20.2-7.7L283,189C275.2,192.5,271.8,201.5,275.2,209.3L275.2,209.3z"/>
					</g>
					<path class="st12" d="M268.2,238.7c-5.1-3.7-10.5-7-15.9-10.2l21.5-33c4-6.1,12-7.8,17.8-4.1c5.8,3.7,7.4,11.8,3.5,17.9
						L268.2,238.7z"/>
					<path class="st14" d="M304.8,222.9c-5.7-5.6-14.6-6-20-1l-8.5,8.1c-0.9-1.1-1.4-2-1.9-3.1c-2.2-5.4,0.2-11.3,5.4-13l28.4-9.1
						c3.4-1.1,7-0.2,9.8,2C313.2,211.9,308.8,217.2,304.8,222.9z"/>
					<path class="st12" d="M285.1,238.9c-4.1-4.3-3.8-11.2,0.5-15.2l23.6-22c4.3-4.1,11.2-3.8,15.2,0.5l0,0
						c4.1,4.3,3.8,11.2-0.5,15.2l-23.6,22C296,243.5,289.2,243.2,285.1,238.9L285.1,238.9z"/>
				</g>
				
					<rect x="355.3" y="133.1" transform="matrix(0.7071 -0.7071 0.7071 0.7071 -1.7896 308.3302)" class="st8" width="32.1" height="46.4"/>
				<path class="st13" d="M371.2,101.1l-20.3,20.4c-6.2,6.2-6.2,16.3,0,22.5l34.8,34.8c6.2,6.2,16.3,6.2,22.5,0l20.4-20.4
					L371.2,101.1z"/>
			</g>
		</g>
	</g>
</g>
</svg>
