<?xml version="1.0" encoding="utf-8"?>
<!-- Generator: Adobe Illustrator 16.0.0, SVG Export Plug-In . SVG Version: 6.00 Build 0)  -->
<!DOCTYPE svg PUBLIC "-//W3C//DTD SVG 1.1//EN" "http://www.w3.org/Graphics/SVG/1.1/DTD/svg11.dtd">
<svg version="1.1" id="icons" xmlns="http://www.w3.org/2000/svg" xmlns:xlink="http://www.w3.org/1999/xlink" x="0px" y="0px"
	 width="64px" height="64px" viewBox="0 0 64 64" enable-background="new 0 0 64 64" xml:space="preserve">
<g>
	<g>
		<polygon fill="#ED5565" points="43.005,14.01 43.005,17.01 37.005,17.01 37.005,14.01 37.005,11.01 43.005,11.01 		"/>
		<path fill="#E6E9ED" d="M25.995,20.5v-17v-3h28.01v23h-11.01v2l-5-2h-12V20.5z M47.005,11.01h-2h-2h-6h-2h-2h-2v3h6v3h6v-3h6v-3
			H47.005z"/>
		<polygon fill="#CCD1D9" points="25.995,3.5 25.995,20.5 22.015,20.5 17.015,22.5 17.015,20.5 14.015,20.5 14.015,3.5 		"/>
		<polygon fill="#DA4453" points="37.005,11.01 37.005,14.01 31.005,14.01 31.005,11.01 33.005,11.01 35.005,11.01 		"/>
		<polygon fill="#DA4453" points="45.005,11.01 47.005,11.01 49.005,11.01 49.005,14.01 43.005,14.01 43.005,11.01 		"/>
		<path fill="#F5F7FA" d="M47.985,54.5l-2,1l-2-1v-3.941c1.21,0.602,2.56,0.941,4,0.941c1.43,0,2.8-0.34,4-0.941V54.5l-2,1
			L47.985,54.5z"/>
		<path fill="#F6BB42" d="M56.985,38v1.209c-1.95-2.539-3.36-3.09-5-2.879l3-4.16C56.245,33.779,56.985,35.809,56.985,38z"/>
		<path fill="#EAC6BB" d="M56.985,39.209V42.5c0,3.529-2.04,6.59-5,8.059c-1.2,0.602-2.57,0.941-4,0.941c-1.44,0-2.79-0.34-4-0.941
			c-2.971-1.459-5-4.52-5-8.059v-0.041v-4.32c7.08,0.871,10.34-1.469,13-1.809C53.625,36.119,55.035,36.67,56.985,39.209z"/>
		<path fill="#D3B1A9" d="M53.982,36.57v5.93c0,3.529-2.04,6.59-5,8.059c-0.771,0.387-1.617,0.65-2.499,0.801
			c0.489,0.082,0.987,0.141,1.502,0.141c1.43,0,2.8-0.34,4-0.941c2.96-1.469,5-4.529,5-8.059v-3.291
			C55.852,37.732,54.902,36.943,53.982,36.57z"/>
		<path fill="#E6E9ED" d="M45.985,55.5l2-1l2,1l2-1h3c2.76,0,5,2.24,5,5v3c0,0.549-0.45,1-1,1h-22c-0.561,0-1-0.451-1-1v-3
			c0-2.76,2.229-5,5-5h3L45.985,55.5z"/>
		<g>
			<path fill="#CCD1D9" d="M54.985,54.5h-3l0,0c2.758,0.002,4.997,2.24,4.997,5v3c0,0.549-0.45,1-1,1h3.003c0.55,0,1-0.451,1-1v-3
				C59.985,56.74,57.745,54.5,54.985,54.5z"/>
		</g>
		<path fill="#FFCE54" d="M54.985,32.17l-3,4.16c-2.66,0.34-5.92,2.68-13,1.809c-0.32-0.039-0.66-0.08-1-0.139
			c0-5.25,4.25-9.5,9.5-9.5C50.535,28.5,53.245,29.939,54.985,32.17z"/>
		<path fill="#5D9CEC" d="M28.015,62.5c0,0.549-0.449,1-1,1h-22c-0.55,0-1-0.451-1-1v-3c0-2.76,2.24-5,5-5h3l2,1l2-1l2,1l2-1h3
			c2.771,0,5,2.24,5,5V62.5z"/>
		<g>
			<path fill="#4A89DC" d="M23.015,54.5h-3l0,0c2.769,0.002,4.997,2.24,4.997,5v3c0,0.549-0.449,1-1,1h3.003c0.551,0,1-0.451,1-1v-3
				C28.015,56.74,25.785,54.5,23.015,54.5z"/>
		</g>
		<path fill="#87BCF4" d="M16.015,51.5c1.44,0,2.801-0.34,4-0.941V54.5l-2,1l-2-1l-2,1l-2-1v-3.941
			C13.215,51.16,14.575,51.5,16.015,51.5z"/>
		<path fill="#EAC6BB" d="M25.015,39.52v2.98c0,3.529-2.04,6.59-5,8.059c-1.199,0.602-2.56,0.941-4,0.941c-1.439,0-2.8-0.34-4-0.941
			c-2.949-1.459-4.979-4.5-5-8.01V42.5v-2.98l3-2.02c0,0,3.011,1,6.5,1c3.49,0,5.5-1,5.5-1L25.015,39.52z"/>
		<path fill="#D3B1A9" d="M22.015,37.5h-0.003v5c0,3.529-2.04,6.59-5,8.059c-0.771,0.387-1.615,0.65-2.498,0.801
			c0.489,0.082,0.987,0.141,1.501,0.141c1.44,0,2.801-0.34,4-0.941c2.96-1.469,5-4.529,5-8.059v-2.98L22.015,37.5z"/>
		<path fill="#965353" d="M25.015,36.5v3.02l-3-2.02c0,0-2.01,1-5.5,1c-3.489,0-6.5-1-6.5-1l-3,2.02V36.5c0-4.42,3.58-8,8-8h6v4
			C23.225,32.5,25.015,34.289,25.015,36.5z"/>
		<path fill="#844747" d="M21.015,35.5c0.552,0,1,0.447,1,1v1l3,2.02V36.5c0-2.211-1.79-4-4-4v-4h-3v4
			C18.015,34.156,19.357,35.5,21.015,35.5z"/>
	</g>
	<g>
		<path fill="#DA4453" d="M37.008,12.006H35.01c-0.553,0-1-0.447-1-1s0.447-1,1-1h1.998c0.553,0,1,0.447,1,1
			S37.561,12.006,37.008,12.006z"/>
	</g>
	<g>
		<path fill="#DA4453" d="M45.007,12.006h-1.999c-0.553,0-1-0.447-1-1s0.447-1,1-1h1.999c0.553,0,1,0.447,1,1
			S45.56,12.006,45.007,12.006z"/>
	</g>
	<g>
		<path fill="#545C66" d="M33.01,12.006c-0.553,0-1-0.447-1-1v-3c0-0.553,0.447-1,1-1s1,0.447,1,1v3
			C34.01,11.559,33.563,12.006,33.01,12.006z"/>
	</g>
	<g>
		<path fill="#656D78" d="M36.01,9.006h-6.001c-0.553,0-1-0.447-1-1s0.447-1,1-1h6.001c0.553,0,1,0.447,1,1
			S36.563,9.006,36.01,9.006z"/>
	</g>
	<g>
		<path fill="#545C66" d="M47.007,12.006c-0.553,0-1-0.447-1-1v-3c0-0.553,0.447-1,1-1s1,0.447,1,1v3
			C48.007,11.559,47.56,12.006,47.007,12.006z"/>
	</g>
	<g>
		<path fill="#656D78" d="M50.007,9.006h-6.001c-0.553,0-1-0.447-1-1s0.447-1,1-1h6.001c0.553,0,1,0.447,1,1
			S50.56,9.006,50.007,9.006z"/>
	</g>
	<g>
		<path fill="#DA4453" d="M37.012,15.006H31.01c-0.553,0-1-0.447-1-1v-3c0-0.553,0.447-1,1-1h4c0.553,0,1,0.447,1,1s-0.447,1-1,1h-3
			v1h5.002c0.553,0,1,0.447,1,1S37.564,15.006,37.012,15.006z"/>
	</g>
	<g>
		<path fill="#DA4453" d="M49.007,15.006h-6.002c-0.553,0-1-0.447-1-1s0.447-1,1-1h5.002v-1h-3c-0.553,0-1-0.447-1-1s0.447-1,1-1h4
			c0.553,0,1,0.447,1,1v3C50.007,14.559,49.56,15.006,49.007,15.006z"/>
	</g>
	<g>
		<path fill="#ED5565" d="M43.008,18.008h-6c-0.553,0-1-0.447-1-1v-6.002c0-0.553,0.447-1,1-1h6c0.553,0,1,0.447,1,1v6.002
			C44.008,17.561,43.561,18.008,43.008,18.008z M38.008,16.008h4v-4.002h-4V16.008z"/>
	</g>
</g>
</svg>
