<svg id="artwork" xmlns="http://www.w3.org/2000/svg" viewBox="0 0 512 512"><title>Teamwork</title><g id="Teamwork"><path d="M300.09,157.5,293,164.61l-20.42,5a79.42,79.42,0,0,0-37.23,20.94l-6.5,6.5a11.17,11.17,0,0,0-8.3.9l-10.82-10.82a55.38,55.38,0,0,0-21.37-13.27l-23.1-7.82,2.42-2.42L146,142,94.26,90.25l-53.9,53.89L98.3,202.08l-.19.19,7.1,7.11,5,20.42A79.34,79.34,0,0,0,131.19,267l10.11,10.12,9.08,9.07,5.48,5.49.12.11,13.82,13.82v2.73a55.35,55.35,0,0,0,5.72,24.49l16.8,34v9.73h.07V489.67h87.95V372H259.4v-5.45l10.88-18a79.36,79.36,0,0,0,11.52-41.13V297a10.64,10.64,0,0,0,8.58-3l24.82-24.81a55.45,55.45,0,0,0,13.27-21.37l12.17-35.92,6.88-6.89Z" style="fill:#c6d0dc"/><polygon points="383.12 192.61 329.22 138.72 380.99 86.95 402.63 65.32 456.52 119.21 383.12 192.61" style="fill:#ef835e"/><polygon points="49.49 119.21 103.39 65.32 155.16 117.09 176.79 138.72 122.9 192.61 49.49 119.21" style="fill:#ef835e"/><path d="M328.13,144.5,321,151.61l-20.42,5a79.42,79.42,0,0,0-37.23,20.94l-6.5,6.5a11.17,11.17,0,0,0-8.3.9l-10.82-10.82a55.45,55.45,0,0,0-21.37-13.27l-35.92-12.17-6.88-6.88-47.43,47.43,7.1,7.11,5,20.42A79.45,79.45,0,0,0,159.22,254l10.12,10.12,9.08,9.07,5.48,5.49.12.11,13.82,13.82v2.72a55.36,55.36,0,0,0,5.72,24.5l16.8,34v9.74h67.08V353.55l10.88-18a79.36,79.36,0,0,0,11.52-41.13V284a10.64,10.64,0,0,0,8.58-3l24.82-24.82a55.34,55.34,0,0,0,13.27-21.36l12.17-35.92,6.88-6.89Z" style="fill:#fff"/><polygon points="291.95 467.41 215.73 467.41 215.73 394.2 215.73 363.6 291.95 363.6 291.95 467.41" style="fill:#ef835e"/><polygon points="49.49 120.49 62.77 107.21 114.3 158.74 135.83 180.28 122.56 193.55 49.49 120.49" style="fill:#e56e4e"/><polygon points="215.73 363.84 234.5 363.84 234.5 436.71 234.5 467.17 215.73 467.17 215.73 363.84" style="fill:#e56e4e"/><polygon points="444.51 106.28 457.78 119.55 406.25 171.08 384.72 192.61 371.44 179.34 444.51 106.28" style="fill:#e56e4e"/><path d="M465,119.21,402.63,56.83l-81.89,81.89,3.19,3.19-1.68,1.68-18.8,4.63a85.54,85.54,0,0,0-40,22.53l-7.11,7.1a18.29,18.29,0,0,0-2.47-.19,16.83,16.83,0,0,0-4.34.58l-6.89-6.89a85.49,85.49,0,0,0-40-22.53l-18.79-4.63-1.68-1.68,3.19-3.19L103.39,57.43,41,119.81,122.9,201.7l3.18-3.19,1.66,1.66,11.78,34.53a61.89,61.89,0,0,0,14.73,23.66l24.82,24.81A16.58,16.58,0,0,0,190.88,288l1,0v7.36a61.63,61.63,0,0,0,6.34,27.15l16.17,32.75v2.33h-4.62V473.41H298V357.6h-4.52v-2.38l10-16.56a85.49,85.49,0,0,0,12.38-44.24v-7A16.57,16.57,0,0,0,327,282.57l24.82-24.81a61.87,61.87,0,0,0,14.72-23.66l11.78-34.53,1.66-1.66,3.19,3.19ZM351.63,124.8l10.54,10.53,8.48-8.48-10.53-10.54L402.63,73.8,448,119.21l-42.51,42.51-26-26-8.49,8.49,26,26-13.92,13.92-45.41-45.41ZM103.39,74.4l42.51,42.51-10.54,10.54,8.49,8.48,10.53-10.53,13.92,13.92-45.4,45.41L109,170.81l26-26-8.48-8.49-26,26L58,119.81ZM190.88,276a4.68,4.68,0,0,1-3.33-1.35l-24.81-24.81a50,50,0,0,1-11.86-19L138.2,193.65,134.57,190l39-39,4.05,4,22,5.43a73.61,73.61,0,0,1,34.43,19.36l5.45,5.45a17.17,17.17,0,0,0-2.79,7.5,17.7,17.7,0,0,0-5.35-.83,17.05,17.05,0,0,0-17.2,16.85v35.4a17,17,0,0,0-5.13-.78,17.37,17.37,0,0,0-14,7.09L175.9,231.36l-8.48,8.48,24.42,24.42v11.68A5.21,5.21,0,0,1,190.88,276Zm30.85,185.37V401.29h36.75v-12H221.73V369.6H286v19.69h-14.9v12H286v60.12Zm82.1-167a73.42,73.42,0,0,1-10.65,38l-11.75,19.44v5.72H226.35v-5.14L208.94,317.2a49.52,49.52,0,0,1-5.1-21.83v-35.1a5.07,5.07,0,0,1,5.26-4.85,5,5,0,0,1,5.13,4.87v35.13h12V208.8a5,5,0,0,1,5.2-4.85,5.34,5.34,0,0,1,3.8,1.54,4.06,4.06,0,0,1,.42.47,4.56,4.56,0,0,1,1,2.84v59.27h12V194.9A5.24,5.24,0,0,1,255.8,190a5.56,5.56,0,0,1,1.71,1.16A5.21,5.21,0,0,1,259,194.9v70.53h12V205.94a5.26,5.26,0,0,1,5.2-5.3,5.1,5.1,0,0,1,3.66,1.53,5.28,5.28,0,0,1,1.54,3.77v61.34h12v-46a5.26,5.26,0,0,1,5.2-5.3,5.12,5.12,0,0,1,3.67,1.54,5.28,5.28,0,0,1,1.53,3.76Zm64-101.37-12.68,37.18a49.86,49.86,0,0,1-11.86,19l-24.82,24.82a4.61,4.61,0,0,1-2.63,1.28V262l22.77-22.76-8.49-8.48L315.83,245V221.29a17.24,17.24,0,0,0-17.2-17.3,16.92,16.92,0,0,0-5.25.83,17.17,17.17,0,0,0-4.95-11.08,17,17,0,0,0-18.18-4,17,17,0,0,0-3.1-5.76l4.75-4.75a73.58,73.58,0,0,1,34.42-19.36l22-5.43,4.05-4.05,39,39Z"/></g></svg>